<svg width="17" height="24" viewBox="0 0 17 24" fill="none" xmlns="http://www.w3.org/2000/svg">
<path fill-rule="evenodd" clip-rule="evenodd" d="M16.2485 11.3893C15.9899 11.2834 13.3393 14.1263 13.3393 14.1263L14.3419 14.5373C13.6669 16.0311 12.2184 16.7315 12.2184 16.7315C10.5359 16.9771 10.196 14.3589 10.196 14.3589C10.8192 13.6508 11.3587 12.5472 11.3587 12.5472C12.5608 9.44576 8.6317 9.17956 8.6317 9.17956L8.28436 7.47636C8.45926 6.90776 11.3414 5.61291 11.3414 5.61291L11.0483 4.46538L9.6343 4.49898C9.2303 3.35921 8.36565 2.55025 8.36565 2.55025C8.52084 1.46217 7.30146 -1.06808 4.92674 0.498139C2.54216 2.06695 4.6804 4.32582 4.6804 4.32582C3.76155 5.21748 4.05223 6.45805 4.05223 6.45805L2.29829 7.1016L2.68011 8.20261L4.23452 8.07597C4.98586 10.4615 7.11424 10.0299 7.11424 10.0299L8.05033 14.1806C5.02527 15.7287 5.63373 18.0057 5.63373 18.0057L3.65562 17.3983C5.31595 16.8685 4.59418 16.1371 4.09903 16.2637C3.60389 16.393 1.18236 15.7417 1.18236 15.7417C0.913852 17.0701 2.04702 19.9622 2.29089 19.8847C2.53477 19.8045 3.03977 18.396 3.03977 18.396L5.84312 19.9079C8.29914 25.8187 12.5313 23.8286 13.8664 22.57C15.1991 21.3139 14.2778 17.4319 14.2778 17.4319L15.6425 15.1369L16.3101 15.7443C16.6279 14.5502 16.5047 11.4953 16.2485 11.3893ZM6.80139 8.95471C5.79139 8.84616 5.65344 7.91573 5.65344 7.91573C5.65344 7.91573 5.82834 7.79425 6.30132 7.89247C6.77675 7.99068 6.80139 8.95471 6.80139 8.95471ZM9.8092 13.1132L9.00121 10.5261C11.3636 10.9319 9.8092 13.1132 9.8092 13.1132ZM7.93209 3.67969L8.60214 4.73676C8.60214 4.73676 7.23495 5.16838 7.08714 4.40594C7.08468 4.40336 7.78429 4.01568 7.93209 3.67969ZM8.41738 15.3462C8.48636 15.3152 9.37318 18.4244 6.79646 18.1298C6.79646 18.1272 6.4639 16.2224 8.41738 15.3462ZM11.1862 22.9111C8.53562 23.3376 7.55519 20.3706 7.55519 20.3706C8.8805 20.8022 11.4621 22.6915 11.4621 22.6915C11.5016 21.3087 13.492 18.4761 13.492 18.4761C13.4698 19.8356 13.8393 22.4847 11.1862 22.9111Z" fill="#E63946"/>
<path fill-rule="evenodd" clip-rule="evenodd" d="M5.87022 1.62241C6.02788 1.53195 6.01063 1.33036 6.03773 1.15978C5.99832 1.17012 5.99832 1.10809 5.94905 1.1391C5.96383 1.31743 5.79139 1.46475 5.87022 1.62241Z" fill="#E63946"/>
<path fill-rule="evenodd" clip-rule="evenodd" d="M6.2348 1.28642C6.11163 1.36137 6.08454 1.50093 6.087 1.65601C6.27668 1.62241 6.23727 1.44408 6.2348 1.28642Z" fill="#E63946"/>
<path fill-rule="evenodd" clip-rule="evenodd" d="M6.45158 1.6741C6.42941 1.71028 6.45158 1.80074 6.48607 1.82142C6.56736 1.81366 6.5649 1.75163 6.56244 1.69219C6.50824 1.65859 6.4639 1.60949 6.45405 1.49835C6.37522 1.43115 6.28161 1.53195 6.31856 1.64308C6.35551 1.66376 6.42449 1.63533 6.45158 1.6741Z" fill="#E63946"/>
<path fill-rule="evenodd" clip-rule="evenodd" d="M6.62895 1.98424C6.693 2.01267 6.72256 2.00492 6.76936 1.94806C6.7669 1.78006 6.56244 1.83692 6.62895 1.98424Z" fill="#E63946"/>
<path fill-rule="evenodd" clip-rule="evenodd" d="M6.72502 2.22719C6.82602 2.29697 6.9147 2.09279 6.79646 2.0747C6.76936 2.12381 6.68561 2.13414 6.72502 2.22719Z" fill="#E63946"/>
<path fill-rule="evenodd" clip-rule="evenodd" d="M6.84573 2.3745C6.82849 2.40552 6.8408 2.45462 6.85558 2.50373C6.96151 2.51148 6.96397 2.40035 6.90731 2.359C6.88514 2.36417 6.86544 2.36934 6.84573 2.3745Z" fill="#E63946"/>
<path fill-rule="evenodd" clip-rule="evenodd" d="M5.79878 5.07792C5.93427 4.96937 6.01802 4.82463 6.0599 4.65664C5.88746 4.67473 5.80864 4.897 5.79878 5.07792Z" fill="#E63946"/>
<path fill-rule="evenodd" clip-rule="evenodd" d="M7.90992 6.53817C7.86311 6.05487 7.64387 5.49661 7.63648 5.07792C7.61677 5.08309 7.59707 5.08826 7.57736 5.09342C7.58721 5.55089 7.78182 6.11431 7.90992 6.53817Z" fill="#E63946"/>
<path fill-rule="evenodd" clip-rule="evenodd" d="M8.08975 5.02881C8.15872 5.39581 8.25972 6.19185 8.48636 6.47873C8.30653 6.02385 8.27697 5.56898 8.1538 5.03398C8.12916 5.03915 8.12177 5.01589 8.08975 5.02881Z" fill="#E63946"/>
<path fill-rule="evenodd" clip-rule="evenodd" d="M8.97657 6.22286C8.89035 5.81451 8.87311 5.264 8.69821 4.92026C8.65387 5.13995 8.78443 5.50695 8.84109 5.81451C8.87065 5.97733 8.83616 6.17634 8.97657 6.22286Z" fill="#E63946"/>
<path fill-rule="evenodd" clip-rule="evenodd" d="M8.94209 4.87891C8.8534 5.16062 9.02092 5.799 9.16133 6.10914C9.12684 5.74731 9.04309 5.19681 8.94209 4.87891Z" fill="#E63946"/>
<path fill-rule="evenodd" clip-rule="evenodd" d="M8.34348 5.11927C8.40506 5.50436 8.45433 5.80675 8.50114 6.07813C8.52331 6.20994 8.52084 6.42187 8.6514 6.46064C8.54548 5.98509 8.51099 5.53021 8.38782 5.04173C8.36811 5.0469 8.34841 5.05207 8.3287 5.05724C8.33362 5.07792 8.33855 5.09859 8.34348 5.11927Z" fill="#E63946"/>
<path fill-rule="evenodd" clip-rule="evenodd" d="M8.86572 6.3831C8.73023 6.07813 8.61199 5.47335 8.53809 5.0469C8.52823 5.02364 8.50853 5.02106 8.48882 5.01589C8.45926 5.22265 8.54548 5.43975 8.59721 5.67494C8.6514 5.91272 8.66126 6.31849 8.86572 6.3831Z" fill="#E63946"/>
<path fill-rule="evenodd" clip-rule="evenodd" d="M9.63184 5.85844C9.54069 5.56122 9.42738 5.17613 9.42984 4.88925C9.27957 4.85048 9.16626 4.92543 9.1096 5.05983C9.20321 5.42424 9.20321 5.76799 9.31652 6.0497C9.37072 5.91272 9.5062 5.85844 9.63184 5.85844Z" fill="#E63946"/>
<path fill-rule="evenodd" clip-rule="evenodd" d="M9.85355 5.71371C9.92006 5.72146 10.0432 5.73956 10.0974 5.67494C10.0851 5.50953 9.99642 5.1813 10.0235 4.98487C9.92991 4.88149 9.74516 4.67215 9.61952 4.88666C9.6885 5.09859 9.80674 5.44492 9.85355 5.71371Z" fill="#E63946"/>
<path fill-rule="evenodd" clip-rule="evenodd" d="M6.64127 6.0833C6.57229 6.14533 6.52056 6.23062 6.41463 6.29523C6.34812 6.33658 6.17815 6.3004 6.2151 6.43479C6.592 6.43221 6.7669 6.14533 6.77675 5.84811C6.75212 5.85327 6.74227 5.82743 6.7127 5.84294C6.65358 5.8998 6.64373 5.99025 6.64127 6.0833Z" fill="#E63946"/>
<path fill-rule="evenodd" clip-rule="evenodd" d="M4.95876 18.3236C4.87254 18.489 4.61635 18.5459 4.59171 18.7501C4.72474 18.6286 4.97354 18.4838 4.95876 18.3236Z" fill="#E63946"/>
<path fill-rule="evenodd" clip-rule="evenodd" d="M11.0729 17.5302C11.206 17.4475 11.2232 17.2019 11.201 17.0779C11.1764 17.083 11.1665 17.0572 11.137 17.0727C11.1345 17.2278 10.9793 17.3699 11.0729 17.5302Z" fill="#E63946"/>
<path fill-rule="evenodd" clip-rule="evenodd" d="M10.7798 17.3596C10.8512 17.3208 10.7749 17.1942 10.7207 17.1968C10.6862 17.2304 10.6837 17.3958 10.7798 17.3596Z" fill="#E63946"/>
<path fill-rule="evenodd" clip-rule="evenodd" d="M11.0064 17.1476C10.8857 17.1812 10.8635 17.3596 10.9301 17.4552C11.0508 17.4139 11.0261 17.2795 11.0064 17.1476Z" fill="#E63946"/>
<path fill-rule="evenodd" clip-rule="evenodd" d="M11.3267 17.7085C11.3587 17.5508 11.44 17.3286 11.3464 17.1502C11.3193 17.3053 11.2084 17.5793 11.3267 17.7085Z" fill="#E63946"/>
<path fill-rule="evenodd" clip-rule="evenodd" d="M10.7699 18.7811C10.8291 18.7009 10.7847 18.4838 10.6763 18.4709C10.5926 18.533 10.664 18.7914 10.7699 18.7811Z" fill="#E63946"/>
<path fill-rule="evenodd" clip-rule="evenodd" d="M10.9793 18.595C11.0064 18.5821 11.004 18.551 11.0286 18.5381C11.0113 18.458 10.9645 18.4347 10.9005 18.4373C10.8389 18.4813 10.8956 18.6312 10.9793 18.595Z" fill="#E63946"/>
<path fill-rule="evenodd" clip-rule="evenodd" d="M11.2577 18.8793C11.2601 19.0705 11.27 19.3367 11.2675 19.5642C11.2651 19.789 11.2183 20.0061 11.2774 20.1612C11.3316 19.7373 11.4055 19.3264 11.3267 18.8173C11.2996 18.8224 11.2922 18.7966 11.2626 18.8121C11.2675 18.8379 11.2429 18.8483 11.2577 18.8793Z" fill="#E63946"/>
<path fill-rule="evenodd" clip-rule="evenodd" d="M11.0705 18.993C11.0754 19.0214 11.0508 19.0292 11.0655 19.0602C11.0705 19.1119 11.0508 19.1455 11.0803 19.2127C11.0409 19.3678 11.0532 19.5538 11.0311 19.7348C11.0113 19.9028 10.9251 20.1069 11.0163 20.2258C11.0335 19.8097 11.2257 19.4091 11.1296 18.9775C11.1123 18.9827 11.0926 18.9878 11.0705 18.993Z" fill="#E63946"/>
<path fill-rule="evenodd" clip-rule="evenodd" d="M10.7108 19.1739C10.6394 19.4091 10.3906 19.6236 10.4768 19.8976C10.632 19.8536 10.5359 19.5538 10.6492 19.5435C10.6911 19.7037 10.5655 19.8226 10.6615 19.9622C10.797 19.7632 10.7059 19.4194 10.7773 19.1791C10.7502 19.1843 10.7428 19.1584 10.7108 19.1739Z" fill="#E63946"/>
<path fill-rule="evenodd" clip-rule="evenodd" d="M10.9251 19.1843C10.866 19.453 10.7601 19.8717 10.8438 20.1147C10.8857 19.8071 10.9744 19.5306 10.9719 19.1946C10.9621 19.1817 10.9473 19.1765 10.9251 19.1843Z" fill="#E63946"/>
<path fill-rule="evenodd" clip-rule="evenodd" d="M10.2773 20.0371C10.4251 19.8821 10.3536 19.5874 10.4201 19.3807C10.2477 19.5177 10.3019 19.802 10.2773 20.0371Z" fill="#E63946"/>
<path fill-rule="evenodd" clip-rule="evenodd" d="M15.7854 11.746C15.5366 11.5289 15.2238 11.9062 15.0563 12.0639C14.9971 12.1182 14.7188 12.3766 14.6202 12.4645C14.1793 12.8392 13.6546 13.2166 13.2259 13.5707C13.0905 13.6818 12.6175 14.116 12.6569 14.2246C12.6889 14.3098 13.561 14.4649 13.6595 14.6355C13.5831 14.8888 13.4033 15.1343 13.2161 15.3695C13.0412 15.584 12.8269 15.8218 12.6224 16.0079C12.3613 16.2456 12.0632 16.517 11.7602 16.6695C11.6592 16.7212 11.4055 16.8194 11.2897 16.8323C10.7527 16.8995 10.3388 16.6618 10.1147 16.2198C9.86833 15.7365 9.60228 15.3359 9.43477 14.7311C9.41013 14.651 9.37072 14.5011 9.3584 14.3951C9.59489 14.2246 9.69589 14.0902 9.93976 13.8033C10.1541 13.5526 10.499 13.4363 10.4398 13.0357C10.393 12.9685 10.3265 12.9375 10.292 12.8522C10.3832 12.7307 10.5334 12.5549 10.6073 12.4826C10.6492 12.679 10.4448 12.8056 10.4792 12.9375C10.6936 12.8367 10.8291 12.5989 10.7576 12.4025C10.664 12.1492 10.8611 11.9011 10.6073 11.7537C10.6418 11.5728 10.6689 11.3893 10.6418 11.1696C10.5975 11.0895 10.4817 11.1335 10.4448 11.043C10.4743 10.844 10.4965 10.5519 10.3191 10.4098C10.2699 10.3684 10.1836 10.3917 10.1196 10.371C10.0851 10.004 9.77225 9.89289 9.55547 10.0273C9.44216 9.86187 9.3855 9.57758 9.2106 9.53881C8.84848 9.45869 8.69082 9.13045 8.29421 9.32688C8.22277 9.30103 8.17104 9.24676 8.10207 9.22091C8.01092 9.2054 8.01338 9.3398 7.94687 9.28294C7.86065 8.93144 7.65373 8.49724 7.59707 8.13024C7.57243 7.96483 7.51577 7.91831 7.50099 7.80459C7.45912 7.45826 8.07743 7.19981 8.33855 7.0344C8.76965 6.76044 9.20321 6.54334 9.66386 6.27714C9.90035 6.14016 10.0999 6.01093 10.3019 5.92564C10.4275 5.87395 10.5975 5.86103 10.6542 5.7163C10.595 5.27693 10.5729 4.82722 10.361 4.56877C9.97179 4.44729 9.15148 4.6308 8.7795 4.68249C8.77458 4.51449 8.80906 4.47055 8.7524 4.33616C8.7056 4.22502 8.56765 4.19659 8.5307 4.10355C8.44694 3.90454 8.51345 3.7779 8.4297 3.66418C8.38043 3.5944 8.2548 3.57889 8.19814 3.4781C8.16858 3.42641 8.17597 3.32303 8.12424 3.25324C8.08975 3.20155 7.92224 3.15762 7.82616 3.06199C7.80646 3.04131 7.79414 2.96895 7.78182 2.96378C7.68082 2.89399 7.55273 2.97411 7.56751 2.86298C7.58968 2.68982 7.61185 2.51924 7.61185 2.4081C7.60692 1.82142 7.20785 1.07966 6.91717 0.76693C6.58461 0.405097 6.04512 0.159567 5.47115 0.180243C5.01788 0.19575 4.57447 0.33273 4.23698 0.604105C3.8995 0.872896 3.60143 1.22439 3.43638 1.62758C3.18511 2.25045 3.22206 2.60194 3.33045 3.18346C3.42406 3.68486 3.76894 4.21985 3.99803 4.43179C3.89703 4.53517 3.84284 4.66439 3.78618 4.7962C3.89703 5.28985 3.3945 5.48369 3.59157 5.97475C3.45855 6.11948 3.51767 6.35467 3.3477 6.47873C3.25655 6.54593 3.07426 6.58728 2.92153 6.65448C2.5397 6.82247 2.12092 6.97237 1.7859 7.14037C1.67258 7.48153 2.01007 7.95449 1.99036 8.30599C2.09629 8.30857 3.11121 8.14316 3.54477 8.17935C3.74923 8.3034 3.70243 8.70401 3.97833 8.86683C4.08672 9.05292 4.17047 9.239 4.35523 9.38891C4.4242 9.37598 4.54491 9.51038 4.6262 9.47678C4.70503 9.63702 4.7272 9.7404 4.96861 9.76625C5.38986 9.82569 5.73227 10.1643 6.19539 10.0531C6.25698 10.1048 6.37029 10.0635 6.42449 10.1281C6.48361 10.2754 7.35812 13.7671 7.35812 14.2814C7.21278 14.3538 7.14873 14.4804 7.14626 14.6458C6.81124 14.6122 6.55258 14.8655 6.44666 15.0878C6.12888 15.2299 5.94659 15.4574 5.80864 15.7158C5.59678 15.8011 5.41449 15.9122 5.36769 16.0932C5.35044 16.1578 5.38247 16.2327 5.37261 16.2922C5.18047 16.4447 4.92674 16.6282 5.0302 16.9125C4.89718 17.0779 4.73213 17.22 4.83559 17.5379C4.70503 17.6982 4.75923 18.0135 4.94644 18.1091C5.08686 18.0832 5.20756 18.0884 5.29625 18.1556C5.29871 18.0626 5.29378 17.9644 5.39232 17.9308C5.45883 17.985 5.51056 18.1453 5.62634 18.0264C5.67315 17.923 5.52534 17.9644 5.52288 17.8532C5.5549 17.7473 5.70764 17.5534 5.85298 17.6361C5.89732 17.8842 5.64605 17.9437 5.70764 18.2047C5.96629 18.0471 6.16337 17.6826 5.90225 17.4009C6.01802 17.4397 6.10424 17.3467 6.12395 17.2562C6.1609 17.0675 6.25944 16.9047 6.27176 16.7083C6.41956 16.6437 6.47129 16.4653 6.592 16.362C6.66836 16.2973 6.77922 16.2715 6.85312 16.2069C7.10192 15.9924 7.31378 15.6977 7.60199 15.5065C7.70792 15.7029 7.76951 15.9717 7.80646 16.2069C7.89514 16.7729 7.81138 17.5948 7.50592 17.8351C7.20785 18.0548 6.91963 18.2306 5.9589 18.2719C4.87993 18.1556 3.78372 18.0729 2.97079 17.4991C3.12353 17.5069 3.81574 17.1218 3.91181 16.9952C4.16308 16.6618 3.95123 16.3904 3.62852 16.3128C2.75648 16.2456 1.75387 16.1371 0.9779 15.8089C0.756194 15.7132 0.598536 15.5995 0.5 15.8399C0.61578 16.6307 0.736487 17.5818 0.918779 18.4838C1.02471 19.0137 1.21685 19.6676 1.43117 19.9725C1.71199 20.0113 1.65287 19.7503 1.97558 19.0369C2.07412 18.8198 2.25641 18.7035 2.35741 18.4968C2.75401 18.7552 3.13338 18.9594 3.54723 19.1713C3.77879 19.2876 4.03006 19.3393 4.24684 19.4608C4.31335 19.4996 4.36015 19.5771 4.42913 19.6133C4.47347 19.6391 4.53998 19.621 4.58432 19.6417C4.61881 19.6572 4.63606 19.7141 4.66808 19.7322C5.04005 19.9415 5.49825 19.9415 5.87022 20.1819C5.63127 20.1328 5.6362 20.3525 5.50564 20.43C5.3603 20.4533 5.38 20.1793 5.31349 20.1457C5.21249 20.3421 5.3603 20.5566 5.5081 20.629C5.50071 20.8564 5.60664 21.1097 5.784 21.1795C5.69039 21.5698 6.03527 21.7662 6.12642 22.1125C6.23973 22.2392 6.34566 22.3761 6.48361 22.4666C6.64373 22.7767 6.80878 23.074 7.15119 23.074C7.27682 23.2962 7.4936 23.3634 7.70053 23.4436C7.83109 23.6581 8.07989 23.839 8.3558 23.6322C8.47404 23.839 8.71545 23.9243 8.9815 23.7821C9.15886 23.8933 9.3855 24.1129 9.62691 23.9294C9.80674 23.9889 10.058 24.0225 10.2945 23.8933C10.4719 24.0587 10.6517 23.8312 10.8635 23.7925C11.0926 23.7511 11.3735 23.8571 11.4819 23.6348C11.775 23.6632 12.1199 23.4927 12.2504 23.3066C12.7825 23.2962 12.8318 22.8543 13.1816 22.6708C13.2777 22.4718 13.4033 22.2909 13.4403 22.0505C13.359 21.8515 13.5905 21.7248 13.4698 21.4457C13.4895 21.2881 13.6472 21.1278 13.6521 20.9547C13.6546 20.8745 13.5955 20.7892 13.5955 20.704C13.5905 20.5205 13.7876 20.3085 13.8098 20.0733C13.8295 19.8562 13.7556 19.6236 13.7753 19.4608C13.795 19.2902 13.96 19.1274 13.7999 18.9232C13.9896 18.5381 13.6299 18.0238 13.492 17.5818C13.997 16.8117 14.4503 16.0053 14.9602 15.2377C15.1646 15.3075 15.3469 15.9303 15.6278 15.845C15.7238 15.8166 15.7682 15.6073 15.7953 15.4703C15.8569 15.1576 15.8125 14.8112 15.8421 14.483C15.847 14.4236 15.8987 14.3512 15.9037 14.2892C15.98 13.5526 15.7731 11.8209 15.7854 11.746ZM4.93659 17.3983C4.91935 17.2484 4.95137 17.1347 5.07454 17.0753C5.04744 17.1968 5.12381 17.3828 4.93659 17.3983ZM1.09614 18.0626C1.02717 18.0729 1.03702 17.9489 1.01239 17.8842C1.06658 17.8946 1.11831 18.0083 1.09614 18.0626ZM15.5071 12.1931C15.6081 12.1854 15.4972 12.3068 15.475 12.3327C15.4849 12.4697 15.4603 12.586 15.3593 12.6506C15.3617 12.4697 15.4578 12.3456 15.5071 12.1931ZM15.3174 12.7514C15.3765 12.8056 15.3248 12.9142 15.2558 12.9452C15.2213 12.8444 15.2484 12.785 15.3174 12.7514ZM15.1178 13.0693C15.1375 13.0641 15.1573 13.0589 15.177 13.0538C15.1893 13.1701 15.1302 13.2398 15.0415 13.289C15.0489 13.2037 15.1302 13.1675 15.1178 13.0693ZM14.5513 12.6351C14.4306 12.9917 14.4256 13.4233 14.1596 13.687C14.2606 13.3174 14.2704 12.8909 14.5513 12.6351ZM14.2359 13.0047C14.2039 13.245 14.1374 13.4647 14.0266 13.656C14.0192 13.4595 14.0807 13.1546 14.2359 13.0047ZM14.0044 13.1959C13.9871 13.4078 13.96 13.6999 13.795 13.7593C13.8541 13.5629 13.8344 13.3174 14.0044 13.1959ZM13.7901 13.3613C13.7482 13.5422 13.7457 13.749 13.561 13.8395C13.5757 13.6404 13.6226 13.4621 13.7901 13.3613ZM13.3417 13.8963C13.2925 13.8214 13.3565 13.6844 13.4772 13.6637C13.4895 13.7748 13.4624 13.8653 13.3417 13.8963ZM13.5092 15.6254C13.4994 15.7262 13.5191 15.845 13.423 15.8916C13.4304 15.7908 13.4107 15.6719 13.5092 15.6254ZM12.8786 16.4731C12.9525 16.5274 12.8786 16.6385 12.8663 16.6979C12.7998 16.6488 12.8835 16.5429 12.8786 16.4731ZM12.5633 16.1991C12.5929 16.1862 12.6027 16.2095 12.6273 16.2043C12.6052 16.4111 12.5608 16.6023 12.4845 16.7729C12.4155 16.592 12.5756 16.4033 12.5633 16.1991ZM12.5263 16.8737C12.6273 16.9874 12.4795 17.2329 12.4278 17.3647C12.3391 17.1916 12.4795 17.0158 12.5263 16.8737ZM12.1199 16.5765C12.2283 16.5971 12.1297 16.716 12.1494 16.791C12.0903 16.8323 12.1199 16.7264 12.0608 16.7703C12.0016 17.0469 12.0657 17.4035 11.9203 17.6258C11.8464 17.2562 11.9203 16.8298 12.1199 16.5765ZM12.1445 17.5017C12.0608 17.3415 12.1568 17.1399 12.1987 17.0003C12.3219 17.1192 12.1741 17.3647 12.1445 17.5017ZM11.9524 17.861C11.9277 17.7679 11.9942 17.7318 12.014 17.6671C12.1026 17.6852 12.0164 17.8325 11.9524 17.861ZM9.56286 15.6874C10.2625 17.3312 11.2675 17.0313 11.5853 16.9125C11.4646 17.1916 11.4917 17.5663 11.403 17.8687C11.4843 17.8868 11.4523 17.7033 11.6075 17.7498C11.5976 17.4113 11.6198 17.0908 11.7331 16.8298C11.7849 16.8298 11.8711 16.7134 11.8982 16.8091C11.8809 16.8995 11.7725 16.8504 11.7282 16.8969C11.8982 17.3389 11.642 17.6465 11.605 18.0135C11.6124 18.029 11.6297 18.029 11.6346 18.0496C11.7307 17.9333 11.642 17.6982 11.8859 17.6749C11.8218 17.861 11.7405 18.1091 11.4794 18.1117C11.4129 18.153 11.4819 18.2797 11.3981 18.3107C11.3341 18.4063 11.3094 18.2435 11.2232 18.2874C11.1715 18.2978 11.169 18.3365 11.1567 18.3701C11.169 18.4683 11.2651 18.4167 11.2897 18.4916C11.1493 18.7035 10.797 18.7837 10.5926 18.9542C10.5137 18.7966 10.4595 18.6131 10.4472 18.4141C10.26 18.5045 10.4398 18.719 10.4398 18.9258C10.2526 18.8457 10.3216 18.4916 10.2403 18.3339C10.1097 18.4683 10.2649 18.7397 10.2206 18.8922C10.2649 18.9542 10.3142 19.0033 10.4103 18.9775C10.4103 19.0524 10.2699 19.1015 10.2009 19.0757C10.1147 18.9155 10.09 18.6493 10.0605 18.4683C9.91759 18.5898 10.0999 18.9206 10.0851 19.1274C9.89789 18.9801 9.93237 18.458 9.79196 18.2254C9.69589 18.4606 9.97179 18.9361 9.9102 19.192C9.82891 19.2179 9.79935 19.1403 9.78703 19.1119C9.65647 18.8508 8.78443 15.4936 8.69082 15.1782C8.80167 15.0232 9.02338 14.9405 9.27711 14.8759C9.46679 15.3566 9.41752 15.3462 9.56286 15.6874ZM9.77225 19.4996C9.77718 19.4556 9.81167 19.4298 9.85847 19.4117C9.88064 19.4737 9.83138 19.4892 9.77225 19.4996ZM10.2058 21.4741C10.1541 21.4638 10.1418 21.3889 10.127 21.3165C10.1836 21.3191 10.2354 21.4121 10.2058 21.4741ZM8.39028 14.6846C8.31638 14.5941 8.23755 14.7621 8.16611 14.7182C8.21538 14.4468 8.60953 14.6148 8.79921 14.6252C8.7524 14.7544 8.54794 14.7776 8.39521 14.7931C8.36319 14.7389 8.40999 14.7337 8.39028 14.6846ZM5.61895 6.40895C5.65098 6.39602 5.65837 6.41929 5.683 6.41412C5.71503 6.47615 5.66576 6.48648 5.66822 6.52784C5.62142 6.53817 5.63866 6.44255 5.61895 6.40895ZM5.74705 6.59762C5.84066 6.61571 5.81603 6.80438 5.80864 6.86899C5.68547 6.85865 5.73966 6.68291 5.74705 6.59762ZM6.47868 7.12228C6.56244 7.17397 6.62156 7.26701 6.68068 7.36005C6.55751 7.47636 6.41463 7.25409 6.47868 7.12228ZM6.40232 6.69841C6.5378 6.71134 6.55997 6.89225 6.55997 7.01373C6.45405 7.01114 6.38261 6.81989 6.40232 6.69841ZM8.16119 14.4313C8.21292 14.558 8.0725 14.6407 7.9715 14.6122C7.93948 14.4985 8.05772 14.4003 8.16119 14.4313ZM8.62431 16.6204C8.61692 16.5558 8.66126 16.4705 8.72531 16.5067C8.73762 16.5739 8.70067 16.6101 8.62431 16.6204ZM8.68096 16.8711C8.65387 16.7832 8.71053 16.747 8.77211 16.716C8.80414 16.8091 8.77457 16.8608 8.68096 16.8711ZM7.86311 15.1498C7.86065 15.0283 7.74733 15.0774 7.68082 14.9973C7.70053 14.8164 7.93948 14.8862 8.00846 14.9586C8.12916 14.9379 8.16611 14.8836 8.25233 14.9198C8.18336 15.0335 8.03309 15.0981 7.86311 15.1498ZM8.67357 17.8481C8.67111 17.8041 8.70067 17.7809 8.71545 17.7498C8.77457 17.7602 8.74255 17.861 8.67357 17.8481ZM8.5504 17.0391C8.53809 16.9641 8.53562 16.8995 8.62184 16.8866C8.63416 16.9616 8.63662 17.0262 8.5504 17.0391ZM8.69082 17.556C8.66126 17.4836 8.69082 17.45 8.69821 17.4009C8.72777 17.388 8.73762 17.4113 8.76226 17.4061C8.78197 17.4836 8.74994 17.5276 8.69082 17.556ZM8.0799 16.181C8.14887 16.1707 8.1267 16.287 8.06265 16.2948C8.03063 16.2353 8.0799 16.225 8.0799 16.181ZM8.00599 15.8683C8.08236 15.8657 8.04294 15.951 8.03555 15.995C7.98875 15.995 7.99367 15.8864 8.00599 15.8683ZM8.41984 17.114C8.41492 17.1864 8.34102 17.2174 8.30899 17.2743C8.2548 17.2355 8.34102 17.1296 8.41984 17.114ZM8.38782 17.4345C8.40753 17.5147 8.35826 17.5457 8.29175 17.5689C8.31638 17.5198 8.32377 17.4578 8.38782 17.4345ZM8.53316 17.5095C8.60214 17.5379 8.61692 17.8041 8.45187 17.7964C8.43709 17.6723 8.47158 17.5818 8.53316 17.5095ZM8.69821 18.0419C8.77211 18.1246 8.66618 18.2461 8.61199 18.3081C8.57258 18.1763 8.62431 18.1013 8.69821 18.0419ZM7.1438 10.9215C7.11917 10.9706 7.11178 11.0327 7.04773 11.0559C7.02309 10.9758 7.07729 10.8879 7.1438 10.9215ZM6.94673 10.6166C6.93687 10.5338 6.95658 10.4667 7.03295 10.4382C7.05019 10.5287 7.00831 10.5778 6.94673 10.6166ZM7.20785 12.3017C7.17829 12.2164 7.23495 12.1879 7.30392 12.1673C7.30885 12.2371 7.30146 12.2965 7.20785 12.3017ZM7.43202 12.3559C7.44187 12.4102 7.42217 12.4438 7.37043 12.4593C7.3458 12.3973 7.36551 12.3611 7.43202 12.3559ZM7.39753 12.6738C7.39999 12.741 7.37782 12.7927 7.30146 12.8082C7.27682 12.7281 7.31624 12.6868 7.39753 12.6738ZM7.59214 13.3355C7.63895 13.4208 7.57243 13.4802 7.51085 13.444C7.51824 13.3923 7.53302 13.351 7.59214 13.3355ZM7.55519 13.1675C7.52316 13.0977 7.58475 13.0615 7.61924 13.0848C7.60938 13.1184 7.60446 13.1571 7.55519 13.1675ZM7.25465 12.0458C7.23987 11.9605 7.24973 11.8881 7.34087 11.87C7.3926 11.9192 7.32856 12.02 7.25465 12.0458ZM7.198 11.5289C7.22017 11.6142 7.19061 11.6659 7.10685 11.684C7.097 11.6064 7.12656 11.5547 7.198 11.5289ZM7.1709 11.7796C7.198 11.8752 7.13641 11.9838 7.06497 11.9631C7.0428 11.8623 7.10192 11.8184 7.1709 11.7796ZM7.86558 14.2401C7.86558 14.1625 7.96904 14.0798 8.04541 14.1057C8.06265 14.1961 7.90746 14.2478 7.86558 14.2401ZM7.21524 11.1464C7.19307 11.074 7.2177 11.0301 7.2916 11.0172C7.29407 11.0766 7.29653 11.1386 7.21524 11.1464ZM7.51331 11.9812C7.51331 12.0406 7.4739 12.0742 7.46404 12.1285C7.40738 12.1027 7.43202 11.976 7.51331 11.9812ZM7.14134 10.6346C7.10931 10.5726 7.15858 10.5623 7.15858 10.5209C7.22509 10.5106 7.20292 10.6243 7.14134 10.6346ZM7.04773 10.2366C6.98368 10.216 7.03048 10.1203 7.03541 10.0841C7.12409 10.0893 7.06005 10.1901 7.04773 10.2366ZM6.38015 7.236C6.20771 7.21273 6.09685 6.93361 6.13381 6.72168C6.26437 6.79663 6.39493 7.00597 6.38015 7.236ZM6.40724 7.45051C6.25944 7.49962 6.22249 7.36005 6.18554 7.2179C6.289 7.24375 6.35058 7.34455 6.40724 7.45051ZM6.77183 9.30878C6.76936 9.40183 6.75212 9.48712 6.70039 9.54915C6.63388 9.47936 6.70778 9.35014 6.77183 9.30878ZM7.08222 11.2032C7.09207 11.2627 7.06744 11.3015 7.00092 11.3118C7.00585 11.2627 7.02063 11.2187 7.08222 11.2032ZM6.8679 11.0146C6.85805 10.9551 6.88268 10.9164 6.94919 10.906C6.93441 10.95 6.94919 11.012 6.8679 11.0146ZM5.95398 7.32129C6.04266 7.31612 6.07468 7.40399 6.11656 7.47894C6.00324 7.53063 5.97615 7.42984 5.95398 7.32129ZM6.31363 8.51534C6.29639 8.46106 6.30132 8.42488 6.35305 8.41712C6.39985 8.44297 6.36783 8.49983 6.31363 8.51534ZM5.90964 6.84573C5.99832 6.91035 6.01802 7.09126 6.06237 7.22824C5.92442 7.2179 5.88254 6.97754 5.90964 6.84573ZM5.8579 6.52525C5.78154 6.5666 5.76183 6.42962 5.784 6.38827C5.84066 6.37793 5.8382 6.46839 5.8579 6.52525ZM5.72242 6.31591C5.59186 6.28489 5.66822 6.14533 5.68547 6.06004C5.78893 6.06779 5.7569 6.27455 5.72242 6.31591ZM6.29885 8.71951C6.36044 8.73761 6.28654 8.81773 6.28654 8.85649C6.21017 8.82806 6.30132 8.75828 6.29885 8.71951ZM7.11917 12.1027C7.13887 12.1569 7.13395 12.1957 7.07729 12.2009C7.06005 12.1492 7.06497 12.1104 7.11917 12.1027ZM7.70546 14.8345C7.62909 14.8345 7.61924 14.9069 7.56504 14.8707C7.53795 14.7828 7.61431 14.7595 7.68082 14.7311C7.71038 14.7931 7.70546 14.7673 7.70546 14.8345ZM8.38043 17.7679C8.39028 17.8532 8.35826 17.9075 8.26958 17.9282C8.30406 17.8739 8.27943 17.7809 8.38043 17.7679ZM8.49621 18.1815C8.52823 18.2435 8.45433 18.2383 8.4568 18.2823C8.39767 18.2693 8.4297 18.1711 8.49621 18.1815ZM8.52577 18.3081C8.53562 18.3624 8.54548 18.4167 8.48882 18.427C8.45187 18.3727 8.45926 18.3339 8.52577 18.3081ZM8.64894 19.0292C8.6785 19.1196 8.65633 19.1765 8.58243 19.2023C8.55287 19.1119 8.56026 19.0421 8.64894 19.0292ZM8.84848 19.1558C8.89035 19.2851 8.81645 19.3393 8.7327 19.3858C8.71792 19.3729 8.70314 19.3574 8.69821 19.329C8.7327 19.2618 8.76226 19.192 8.84848 19.1558ZM8.60706 18.6648C8.54548 18.595 8.59228 18.458 8.70314 18.4399C8.73023 18.551 8.70806 18.6312 8.60706 18.6648ZM8.92977 18.8689C8.93223 18.9361 8.91006 18.9878 8.8337 19.0033C8.86818 18.962 8.84601 18.8819 8.92977 18.8689ZM8.8066 18.7914C8.71545 18.7087 8.83123 18.6053 8.92731 18.5846C8.92977 18.6803 8.86079 18.7294 8.8066 18.7914ZM9.09974 18.962C9.11945 19.0447 9.12438 19.1222 9.03323 19.1351C8.97165 19.0809 9.04062 18.993 9.09974 18.962ZM8.89282 18.4373C8.85833 18.3753 8.9347 18.3805 8.9347 18.3391C8.99382 18.3495 8.96179 18.4477 8.89282 18.4373ZM8.82138 18.2099C8.81399 18.1401 8.83862 18.091 8.86818 18.0445C8.89775 18.0316 8.9076 18.0548 8.93223 18.0496C8.95687 18.1427 8.90021 18.184 8.82138 18.2099ZM9.27218 19.161C9.28696 19.2256 9.24755 19.254 9.24016 19.3006C9.18596 19.2825 9.18104 19.1455 9.27218 19.161ZM8.93223 17.7834C8.88543 17.7395 8.93223 17.6387 8.99874 17.6103C9.04062 17.7085 9.00613 17.7576 8.93223 17.7834ZM8.91992 14.4184C8.81153 14.5088 8.64894 14.4623 8.5775 14.3951C8.57258 14.3745 8.56765 14.3538 8.56272 14.3331C8.6785 14.253 8.82877 14.3564 8.91992 14.4184ZM8.79428 13.9609C8.75733 13.8601 8.8534 13.8446 8.92977 13.8162C8.93716 13.8989 8.86572 13.9299 8.79428 13.9609ZM8.4297 14.0307C8.4026 13.9403 8.48143 13.8498 8.54055 13.8705C8.54794 13.9532 8.5036 14.0023 8.4297 14.0307ZM8.55287 14.1108C8.59967 14.2271 8.47897 14.2607 8.41738 14.2556C8.38536 14.1574 8.46419 14.1315 8.55287 14.1108ZM9.0086 14.3512C9.03077 14.2711 9.25001 14.2401 9.29928 14.2349C9.27711 14.3279 9.14655 14.3512 9.06526 14.4055C9.04309 14.39 9.03816 14.3486 9.0086 14.3512ZM8.92238 14.0617C8.97165 13.8369 9.22538 13.8963 9.33623 14.023C9.17857 14.0772 9.03816 14.1367 8.92238 14.0617ZM9.41013 13.9816C9.44216 13.8886 9.50374 13.8162 9.64169 13.7904C9.62445 13.8937 9.53084 13.9454 9.41013 13.9816ZM9.20074 13.4363C9.19582 13.3303 9.34608 13.2373 9.38057 13.3923C9.3313 13.4311 9.26233 13.4492 9.20074 13.4363ZM9.32884 13.6275C9.32884 13.5319 9.47911 13.4569 9.57025 13.4776C9.58503 13.581 9.42984 13.6534 9.32884 13.6275ZM9.52099 13.2683C9.53084 13.1959 9.50867 13.1055 9.60721 13.0899C9.66386 13.1442 9.60228 13.245 9.52099 13.2683ZM9.71313 13.55C9.80181 13.413 10.09 13.3691 10.228 13.2192C10.2526 13.2166 10.2526 13.2528 10.2625 13.276C10.1048 13.3742 9.95701 13.5681 9.71313 13.55ZM9.91513 12.4128C9.8634 12.4309 9.82891 12.4257 9.82152 12.3689C9.87325 12.3508 9.92006 12.3378 9.91513 12.4128ZM9.79196 12.2448C9.79196 12.1724 9.82152 12.1207 9.88311 12.0871C9.92991 12.1311 9.9102 12.2526 9.79196 12.2448ZM10.0654 13.152C10.0506 13.2269 9.95947 13.2502 9.88557 13.2864C9.80674 13.2218 9.97672 13.108 10.0654 13.152ZM9.78703 12.8677C9.73038 12.8703 9.66879 12.8728 9.66386 12.7876C9.70574 12.7255 9.79935 12.7488 9.8634 12.7359C9.86833 12.8005 9.84369 12.8444 9.78703 12.8677ZM10.1664 12.772C10.1048 12.7798 10.0802 12.7255 9.99642 12.7695C10.0654 12.5394 10.3906 12.4748 10.494 12.2655C10.5532 12.4722 10.292 12.6247 10.1664 12.772ZM10.3413 12.2396C10.3856 12.1388 10.4768 12.0639 10.5088 11.9528C10.595 12.0019 10.4324 12.1879 10.3413 12.2396ZM10.2033 10.5442C10.4448 10.8259 10.2526 11.2394 10.0679 11.4203C9.9373 11.0172 10.2058 10.8673 10.2033 10.5442ZM9.58996 10.079C9.74269 10.0428 9.84616 10.0893 9.94223 10.1462C10.1122 10.4718 9.92991 10.7018 9.84615 10.9241C9.59981 10.7354 9.70082 10.3917 9.58996 10.079ZM10.0063 11.7046C9.95455 11.6297 9.9102 11.4152 9.90528 11.3531C9.9373 11.3402 9.94469 11.3635 9.96933 11.3583C9.99889 11.485 10.0383 11.6168 10.0063 11.7046ZM10.43 11.7072C10.4275 11.671 10.4029 11.6762 10.3955 11.6478C10.228 11.7537 10.2157 11.9605 10.0235 12.051C10.1763 11.7925 10.3388 11.5392 10.4029 11.2239C10.43 11.2162 10.4571 11.211 10.4817 11.2032C10.632 11.6917 10.3856 12.082 10.0408 12.312C10.0654 12.0458 10.3536 11.945 10.43 11.7072ZM9.86094 11.8959C9.72052 11.8959 9.81167 11.6736 9.81413 11.5961C9.92745 11.609 9.88557 11.8158 9.86094 11.8959ZM9.67618 11.2782C9.62199 11.2446 9.67618 11.2032 9.64169 11.1309C9.72052 11.0844 9.76733 11.2808 9.67618 11.2782ZM9.13916 9.774C9.35594 9.81277 9.51852 10.1694 9.45694 10.4253C9.22291 10.3814 9.15147 10.079 9.13916 9.774ZM9.47418 10.9525C9.31652 10.9784 9.28696 10.7845 9.23277 10.6372C9.36825 10.6321 9.48403 10.8026 9.47418 10.9525ZM8.9815 10.1901C8.67357 10.1643 8.54548 9.82827 8.41984 9.4897C8.73762 9.49746 8.97165 9.82827 8.9815 10.1901ZM9.02831 10.5778C8.92238 10.6657 8.7795 10.583 8.75979 10.4253C8.8534 10.4667 8.99628 10.4279 9.02831 10.5778ZM8.76226 10.2444C8.81892 10.2418 8.87804 10.2366 8.88543 10.3245C8.83862 10.309 8.77704 10.3167 8.76226 10.2444ZM8.68096 10.5313C8.78443 10.6502 8.93223 10.7975 9.13423 10.6605C9.22784 10.8698 9.30174 11.1154 9.52838 11.0921C9.4865 11.2885 9.62199 11.3325 9.6614 11.4798C9.6885 11.5858 9.60967 11.7408 9.62691 11.8881C9.63184 11.9295 9.67618 11.9708 9.67618 12.007C9.66633 12.2215 9.44216 12.5213 9.7624 12.5627C9.6072 12.5575 9.52345 12.6583 9.53084 12.8418C9.26233 12.878 9.39781 13.1727 9.1293 13.2088C8.7795 12.4852 8.56519 11.5289 8.32131 10.6217C8.43955 10.6424 8.58736 10.6166 8.68096 10.5313ZM8.59228 10.4201C8.55287 10.5959 8.27697 10.5209 8.27943 10.3452C8.39275 10.3529 8.49621 10.3788 8.59228 10.4201ZM8.16119 10.0195C8.16858 9.94458 8.35087 9.97818 8.36565 10.079C8.27204 10.1048 8.23263 10.035 8.16119 10.0195ZM8.28436 9.54656C8.2548 9.64219 8.31145 9.79209 8.3016 9.89806C7.89514 9.92907 7.99368 9.02707 8.28436 9.54656ZM9.02092 13.5707C8.93223 13.6456 8.86572 13.7335 8.73023 13.7774C8.68836 13.5888 8.89035 13.5603 9.02092 13.5707ZM8.88296 13.4285C8.58489 13.4647 8.68097 13.7516 8.34841 13.7645C8.30653 13.7206 8.27204 13.6611 8.21538 13.643C8.08482 12.8884 6.68068 8.12766 6.75458 7.93899C6.9147 7.88471 7.11424 7.76841 7.28914 7.78133C7.34087 8.17676 8.68835 12.6454 8.88296 13.4285ZM6.83588 7.29544C6.71024 7.27735 6.68314 7.09126 6.64373 6.92327C6.78907 6.91293 6.76197 7.19206 6.83588 7.29544ZM6.78661 6.71134C6.96151 6.76044 7.06004 6.96979 7.07236 7.21532C6.98614 7.23083 6.97629 7.29802 6.88268 7.30836C6.87036 7.22307 6.9689 7.21015 7.01817 7.16363C6.93934 7.01114 6.80631 6.96204 6.78661 6.71134ZM10.2132 4.7135C10.4078 5.06499 10.4571 5.58965 10.1812 5.76282C10.0358 5.85327 9.92991 5.93598 9.77472 6.02127C9.23769 6.31849 8.82138 6.50716 8.28436 6.70875C8.0725 6.26421 8.06019 5.65427 7.8976 5.12185C7.86804 5.58448 8.08728 6.17634 8.18828 6.75527C8.14394 6.78112 8.10453 6.80696 8.03309 6.8173C7.9715 6.77595 7.95426 6.66223 7.92963 6.55627C7.84341 6.61571 7.96658 6.77337 7.97643 6.85349C7.91977 6.88708 7.82863 6.95945 7.76212 6.93102C7.50592 6.41153 7.51331 5.74731 7.31131 5.2485C7.32363 5.73956 7.56258 6.45547 7.71038 6.98788C7.66358 7.0008 7.61677 7.01114 7.56997 7.02407C7.39014 6.47873 7.19061 5.86878 7.0699 5.31052C6.95412 5.75765 7.47143 6.5175 7.46651 7.02923C7.25465 7.09385 7.19553 6.78112 7.1167 6.52008C7.0157 6.18151 7.00092 5.73439 6.82602 5.53021C6.90239 5.9489 6.99846 6.35726 7.16844 6.84056C7.20539 6.94394 7.34334 7.11452 7.15119 7.13261C7.06497 6.88192 7.00585 6.60537 6.92702 6.34692C6.84327 6.3831 6.91963 6.52008 6.89992 6.59762C6.7669 6.59245 6.74719 6.39344 6.61663 6.38052C6.60924 6.47098 6.67822 6.59503 6.67329 6.71909C6.59692 6.72426 6.58461 6.61829 6.5649 6.52525C6.48854 6.5847 6.43434 6.57177 6.32595 6.49682C6.30624 6.55627 6.28407 6.61313 6.30871 6.701C6.14859 6.68549 6.12641 6.42704 5.99832 6.35984C5.92442 6.46839 6.12395 6.68808 5.96629 6.7682C5.88746 6.48648 5.84805 6.32883 5.80617 6.07813C5.93427 6.07554 5.93181 6.18926 6.0402 6.17376C6.20278 6.1505 6.31856 5.90755 6.28654 5.77832C6.2151 5.49144 5.7372 5.6491 5.80617 5.98767C5.71995 5.86878 5.74705 5.70337 5.65837 5.62584C5.64359 5.78866 5.69778 5.99542 5.54998 6.07554C5.53027 5.87654 5.46622 5.76023 5.45391 5.56898C5.37015 5.51729 5.41449 5.73697 5.30856 5.67236C5.20017 5.32862 5.48593 5.23816 5.4342 4.9306C5.66576 4.75227 5.74705 4.47572 5.96137 4.28705C5.89239 4.55326 5.64359 4.70316 5.56722 4.9642C5.80864 4.88149 5.91456 4.55584 6.08454 4.36717C6.01802 4.28964 6.01064 4.22244 6.02788 4.11647C6.20278 4.23795 6.14859 4.66698 6.29146 4.89183C6.40971 5.07792 6.68068 5.13478 6.95658 5.12185C7.40492 5.10376 7.94194 4.93835 8.33362 4.95128C8.90513 4.88408 9.7353 4.49898 10.2132 4.7135ZM5.41203 6.52784C5.44405 6.51491 5.45144 6.53817 5.47608 6.53301C5.48593 6.61054 5.51303 6.69841 5.4342 6.72168C5.42681 6.65448 5.38739 6.56919 5.41203 6.52784ZM5.19525 5.76282C5.13613 5.77832 5.12135 5.65685 5.14105 5.62067C5.23466 5.59999 5.16815 5.71371 5.19525 5.76282ZM4.30103 4.90217C4.47593 4.88925 4.57447 4.8143 4.72966 4.74968C4.80849 4.77553 4.63852 4.93835 4.64837 5.03656C4.53752 5.10118 4.37986 5.13736 4.26408 5.19939C4.2222 5.06758 4.26408 4.98746 4.30103 4.90217ZM4.03745 4.12681C4.00542 4.06478 3.95369 4.03635 3.93398 3.95365C3.98079 3.94331 3.98572 3.90196 4.04977 3.90196C4.07686 3.995 4.15076 4.09063 4.03745 4.12681ZM4.98586 4.30773C4.95383 4.46022 4.75923 4.50674 4.70503 4.6463C4.56954 4.67473 4.4784 4.62563 4.3774 4.5972C4.34784 4.29998 4.76169 4.27413 4.98586 4.30773ZM4.60649 3.93814C4.63359 3.87094 4.64345 3.79599 4.73706 3.77273C4.74691 3.86061 4.7001 3.91488 4.60649 3.93814ZM5.27408 3.90196C5.15091 4.01826 4.95876 3.98208 4.8011 3.95623C4.79371 3.72104 5.19032 3.72363 5.27408 3.90196ZM4.96861 3.40315C4.98586 3.35404 5.01788 3.31527 5.06961 3.28943C5.08193 3.35662 5.01542 3.42899 4.96861 3.40315ZM5.82095 3.98466C5.75198 3.98983 5.77415 3.9123 5.77168 3.86319C5.79139 3.85802 5.8111 3.85285 5.83081 3.84768C5.8579 3.9123 5.82342 3.93814 5.82095 3.98466ZM5.83081 4.20435C5.79878 4.14232 5.84805 4.13198 5.84559 4.08804C5.88747 4.09063 5.91456 4.22761 5.83081 4.20435ZM5.42927 2.93276C5.40217 2.85523 5.48593 2.85006 5.50564 2.80354C5.58939 2.98962 5.79139 2.97411 5.88254 3.15245C5.70271 3.12402 5.63373 2.91467 5.42927 2.93276ZM5.50071 3.60215C5.48839 3.628 5.45144 3.76756 5.41449 3.7779C5.31103 3.8115 5.22235 3.59698 5.14352 3.51428C5.13859 3.15503 5.67808 3.23515 5.50071 3.60215ZM5.03266 2.9431C5.02527 2.8604 5.13613 2.85523 5.21742 2.82938C5.23713 2.91984 5.11149 2.91725 5.03266 2.9431ZM5.34305 2.6433C5.34798 2.53991 5.48593 2.51924 5.60417 2.48822C5.57461 2.57868 5.46869 2.61745 5.34305 2.6433ZM5.6362 4.18884C5.60664 4.13457 5.65098 4.12681 5.63127 4.07771C5.65098 4.07254 5.67068 4.06737 5.69039 4.0622C5.71503 4.13198 5.71256 4.18367 5.6362 4.18884ZM5.67315 4.44471C5.65098 4.37751 5.67315 4.33874 5.72981 4.31807C5.76183 4.39302 5.72981 4.42662 5.67315 4.44471ZM5.68793 2.57868C5.79139 2.33574 6.22988 2.49598 6.11902 2.80095C5.96137 2.75443 5.84312 2.63296 5.68793 2.57868ZM5.8382 2.31765C5.42927 2.30472 5.24452 2.57093 4.98832 2.75443C4.63852 2.13673 5.69532 1.52678 5.8382 2.31765ZM4.67054 3.4781C4.67547 3.36955 4.77893 3.32044 4.87747 3.27133C4.87993 3.38764 4.7814 3.4936 4.67054 3.4781ZM5.17061 5.01589C5.18293 5.3984 4.93166 5.61291 4.60649 5.78091C4.60403 5.69303 4.67054 5.61808 4.71242 5.50953C4.80603 5.27176 4.77893 4.90734 5.17061 5.01589ZM5.12381 6.46581C5.19032 6.5511 5.27654 6.67257 5.19525 6.78112C5.09671 6.73977 5.1312 6.46581 5.12381 6.46581ZM5.03513 5.71371C5.08193 5.81451 5.14105 5.96958 5.09671 6.07554C4.99079 6.03419 5.03513 5.80158 5.03513 5.71371ZM5.19278 6.1169C5.22235 6.19443 5.20264 6.24354 5.19032 6.29523C5.11149 6.29523 5.1041 6.11948 5.19278 6.1169ZM5.22974 6.28489C5.33813 6.27455 5.29871 6.41929 5.27408 6.47356C5.19032 6.47356 5.21249 6.32883 5.22974 6.28489ZM4.94644 6.42446C4.89718 6.27455 4.90949 6.16342 4.89964 6.03678C4.97601 6.08588 5.0573 6.3831 4.94644 6.42446ZM5.04498 7.04216C5.13366 7.0008 5.16322 7.2024 5.0844 7.21015C5.05976 7.1352 5.0302 7.11711 5.04498 7.04216ZM5.00557 6.58728C5.08686 6.5847 5.09917 6.81989 5.09178 6.87675C5.01049 6.85866 4.95137 6.65448 5.00557 6.58728ZM5.22727 7.46085C5.3061 7.47119 5.28639 7.6521 5.42188 7.56681C5.45144 7.76065 5.17308 7.57974 5.22727 7.46085ZM5.23466 6.94911C5.38247 6.95428 5.46622 7.15846 5.42681 7.32129C5.32581 7.26959 5.16815 7.11452 5.23466 6.94911ZM5.29132 6.7346C5.35783 6.76561 5.39478 6.8509 5.42434 6.94394C5.33813 6.94136 5.22727 6.82506 5.29132 6.7346ZM5.51056 7.32129C5.55737 7.34455 5.59432 7.44276 5.52534 7.47377C5.51303 7.4195 5.49086 7.35747 5.51056 7.32129ZM5.3332 5.99284C5.38986 5.95407 5.38986 6.01352 5.42434 6.01352C5.41695 6.07296 5.41942 6.14016 5.35291 6.16342C5.32581 6.09622 5.3332 6.04711 5.3332 5.99284ZM6.49346 3.96916C6.54027 3.89421 6.72749 4.14749 6.5378 4.15783C6.49593 4.08804 6.54027 3.98466 6.49346 3.96916ZM7.08222 3.77532C7.16351 3.88128 7.25958 3.95623 7.41477 3.93556C7.38768 4.1113 7.50839 4.17333 7.60692 4.21986C7.51331 4.60237 7.94933 4.48606 7.91977 4.83497C7.71531 4.90217 6.996 4.9978 6.89746 4.9978C6.64619 5.00297 6.4639 4.81171 6.40232 4.50157C6.70039 4.30514 6.93195 4.06478 7.08222 3.77532ZM6.64373 3.79858C6.70778 3.78824 6.72749 3.72621 6.78414 3.76239C6.81617 3.86061 6.75212 3.89679 6.69792 3.93814C6.66344 3.92005 6.65851 3.85544 6.64373 3.79858ZM6.81617 3.53496C6.90239 3.50394 6.96644 3.50911 6.97875 3.60474C6.93195 3.61508 6.92948 3.65643 6.86297 3.65643C6.83588 3.63575 6.82602 3.58665 6.81617 3.53496ZM7.00092 3.33078C7.06744 3.29976 7.08961 3.38505 7.06497 3.42641C7.02309 3.41865 6.97629 3.37213 7.00092 3.33078ZM7.37536 2.57093C7.3729 2.62262 7.38275 2.68206 7.36797 2.72858C7.25219 2.75701 7.16844 2.64071 7.22017 2.54508C7.29653 2.51665 7.32609 2.56059 7.37536 2.57093ZM7.23002 2.20909C7.28421 2.19617 7.33595 2.18325 7.39014 2.16774C7.4197 2.26079 7.42217 2.33315 7.39753 2.39001C7.36551 2.39777 7.33102 2.40552 7.299 2.41586C7.22017 2.37967 7.24726 2.29955 7.23002 2.20909ZM7.24973 3.0258C7.21278 2.97928 7.19307 2.9095 7.16597 2.84747C7.27682 2.79578 7.37782 2.98962 7.24973 3.0258ZM7.41231 3.73655C7.38275 3.78824 7.30146 3.7779 7.25219 3.7779C7.23987 3.72104 7.22756 3.66677 7.21278 3.60991C7.299 3.62025 7.36551 3.6616 7.41231 3.73655ZM7.12656 3.23257C7.08961 3.17312 7.10439 3.18088 7.12163 3.12402C7.16844 3.12919 7.21031 3.14469 7.22509 3.20931C7.19307 3.21706 7.16104 3.22481 7.12656 3.23257ZM7.77197 4.20176C7.83355 4.18367 7.84587 4.25087 7.86065 4.3129C7.82124 4.33616 7.81631 4.3801 7.7498 4.38526C7.71777 4.29481 7.75965 4.25604 7.77197 4.20176ZM8.07004 4.39043C8.13409 4.36976 8.18582 4.45246 8.15872 4.50157C8.08975 4.53258 8.08236 4.45505 8.07004 4.39043ZM8.60214 4.32324C8.67357 4.46797 8.70067 4.7135 8.50853 4.7471C8.48636 4.73418 8.48389 4.69282 8.45433 4.69282C8.41245 4.53 8.56765 4.49123 8.54055 4.33874C8.56272 4.33357 8.58243 4.32841 8.60214 4.32324ZM8.25972 3.7443C8.27943 3.73913 8.29914 3.73396 8.31884 3.7288C8.47404 3.91488 8.38043 4.27155 8.22031 4.30773C8.09221 4.09063 8.29421 3.95882 8.25972 3.7443ZM7.9789 3.34887C8.2548 3.48843 7.96658 3.7288 8.03309 3.95623C7.7966 3.86319 8.04294 3.5608 7.9789 3.34887ZM7.79414 3.28684C7.91238 3.3773 7.91731 3.69778 7.77197 3.73655C7.69314 3.5944 7.71777 3.38764 7.79414 3.28684ZM7.55519 3.43674C7.3187 3.38505 7.41724 3.12143 7.4936 2.98704C7.72763 3.00771 7.63895 3.31786 7.55519 3.43674ZM7.16597 1.93772C7.23495 1.90412 7.25958 1.95064 7.33102 1.91704C7.40985 2.07211 7.14873 2.09538 7.16597 1.93772ZM7.2719 1.75422C7.23248 1.76456 7.19307 1.77489 7.15119 1.78523C7.12656 1.74388 7.07483 1.67927 7.097 1.64308C7.13641 1.59139 7.17829 1.6405 7.23248 1.58622C7.26943 1.61207 7.29407 1.71804 7.2719 1.75422ZM7.17583 1.42598C7.13148 1.45441 7.00585 1.55779 6.99107 1.44924C7.08714 1.44666 7.09946 1.40789 7.17583 1.42598ZM6.95905 1.12618C6.98614 1.15719 6.98861 1.22956 7.02802 1.24248C7.03541 1.30193 6.95166 1.30193 6.94673 1.35103C6.89253 1.33553 6.84819 1.30451 6.83341 1.22439C6.89007 1.19855 6.88022 1.13393 6.95905 1.12618ZM6.70532 1.12359C6.67329 1.04347 6.7398 1.02538 6.80631 1.00988C6.81863 1.07707 6.75212 1.14944 6.70532 1.12359ZM5.62881 0.397343C6.02049 0.477463 6.40232 0.567922 6.68068 0.839297C6.70039 0.922001 6.62156 0.945262 6.5649 0.978861C6.67083 0.808282 6.4639 0.673887 6.4171 0.883234C6.22988 0.68681 5.99093 0.583429 5.66083 0.62995C5.62142 0.575675 5.62388 0.474879 5.62881 0.397343ZM5.41449 0.474879C5.45391 0.495555 5.481 0.534323 5.50317 0.586013C5.39232 0.632535 5.38493 0.536907 5.41449 0.474879ZM5.15583 0.451618C5.17554 0.446449 5.19525 0.44128 5.21496 0.436111C5.27408 0.487801 5.279 0.622197 5.17308 0.622197C5.10657 0.580844 5.16815 0.516231 5.15583 0.451618ZM4.93905 0.617028C4.93166 0.676472 4.8282 0.733331 4.76908 0.704901C4.77154 0.614443 4.86269 0.619612 4.93905 0.617028ZM4.61635 0.676472C4.66069 0.720409 4.69025 0.76693 4.67547 0.839297C4.57447 0.878065 4.53013 0.81862 4.50303 0.728162C4.52028 0.697148 4.56708 0.68681 4.61635 0.676472ZM4.46362 0.937509C4.4513 0.958185 4.41189 0.963354 4.41189 0.994368C4.20742 0.971107 4.40696 0.689394 4.46362 0.937509ZM4.52767 1.12101C4.89964 0.787606 5.72981 0.741085 6.02542 0.901325C6.06976 0.924586 6.22249 1.04347 6.25451 1.05898C6.5181 1.19596 6.73488 1.51644 6.91717 1.78006C7.22017 2.38743 7.00831 3.33853 6.57968 3.67452C6.40478 3.8115 6.38754 3.9123 6.21263 3.95365C5.92442 3.36179 6.39493 2.96636 6.26437 2.43395C6.188 2.11864 5.97861 1.74388 5.71256 1.68702C5.79878 1.4906 5.86037 1.18821 5.79878 0.9556C5.62634 1.11067 5.74951 1.45958 5.64359 1.66118C5.51056 1.65342 5.62388 1.48284 5.62142 1.37946C5.61649 1.2063 5.5623 0.989199 5.48593 0.880649C5.43666 1.11843 5.58693 1.48026 5.42927 1.64825C5.35291 1.51127 5.34798 1.09258 5.18047 1.0228C5.08193 1.11843 5.31842 1.40272 5.27161 1.59915C5.0844 1.57072 5.13859 1.12618 4.9021 1.18304C4.91196 1.30968 5.12135 1.48284 5.08193 1.69219C4.87254 1.71028 4.89225 1.33553 4.68532 1.34845C4.63359 1.3562 4.63113 1.39755 4.62127 1.43115C4.74937 1.4906 4.93659 1.70253 4.89225 1.87311C4.71981 1.83175 4.68779 1.55779 4.48579 1.57589C4.48825 1.73354 4.70257 1.76714 4.74198 1.95323C4.56708 1.9248 4.48825 1.72579 4.27394 1.76197C4.31335 1.9248 4.54737 1.8912 4.54491 2.02559C4.37247 2.07987 4.21235 1.83951 4.1212 2.02301C4.23698 2.14707 4.44391 2.11088 4.5991 2.16774C4.48579 2.24786 4.16801 2.17033 4.06455 2.3254C4.16308 2.43136 4.41435 2.21685 4.53259 2.34091C4.47593 2.56059 4.05962 2.46496 3.96601 2.63813C4.06208 2.74926 4.31828 2.52699 4.4784 2.57351C4.38479 2.73117 4.07194 2.76994 3.95369 2.86298C4.06947 3.03356 4.30842 2.79061 4.45869 2.75701C4.4242 2.96119 4.07933 2.96636 3.9734 3.12402C4.17294 3.15503 4.36015 2.93276 4.52274 2.94052C4.5523 3.19897 4.16801 3.18863 4.1212 3.39798C4.27393 3.47551 4.40942 3.16278 4.58186 3.1938C4.53013 3.38764 4.34291 3.4936 4.31828 3.70295C4.03991 3.59698 3.8995 3.15762 3.83545 2.89399C3.67779 2.2246 4.14091 1.46734 4.52767 1.12101ZM4.18525 1.00729C4.27147 0.986615 4.28133 1.12876 4.24437 1.17012C4.18279 1.18562 4.11628 1.04347 4.18525 1.00729ZM4.04977 1.15202C4.09164 1.21147 4.15076 1.29934 4.09903 1.36137C4.02513 1.35362 3.97586 1.29934 3.95616 1.19855C3.9734 1.17528 4.00296 1.15719 4.04977 1.15202ZM3.82806 1.38722C3.85516 1.37946 3.87979 1.37429 3.90689 1.36654C3.93891 1.40272 4.0005 1.46734 3.96601 1.52936C3.94138 1.53195 3.93152 1.54229 3.93152 1.56038C3.86747 1.55779 3.79357 1.46992 3.82806 1.38722ZM3.78125 1.81883C3.72213 1.83175 3.6975 1.7904 3.66301 1.75939C3.65069 1.48543 3.93645 1.63533 3.78125 1.81883ZM3.68025 1.93514C3.70735 2.02301 3.68518 2.07987 3.63838 2.12381C3.58418 2.1419 3.57433 2.07728 3.53984 2.05919C3.51767 1.96098 3.59896 1.86535 3.68025 1.93514ZM3.48811 2.20393C3.54969 2.17808 3.55462 2.24786 3.60143 2.24011C3.63099 2.33057 3.6236 2.39777 3.61128 2.45979C3.53738 2.47013 3.48811 2.43395 3.44869 2.39001C3.43884 2.31506 3.47087 2.26337 3.48811 2.20393ZM3.47087 2.58644C3.56694 2.55801 3.57679 2.67689 3.59896 2.77511C3.53738 2.80354 3.50289 2.78286 3.45362 2.79061C3.43638 2.70532 3.47087 2.65622 3.47087 2.58644ZM3.48318 2.91467C3.54969 2.92759 3.63099 2.91209 3.63591 3.03097C3.61374 3.06974 3.51274 3.09559 3.47579 3.07233C3.44869 2.99996 3.47579 2.96378 3.48318 2.91467ZM3.6704 3.17829C3.71228 3.23515 3.70489 3.32044 3.6975 3.39281C3.66547 3.40056 3.63099 3.4109 3.5965 3.41865C3.53245 3.33078 3.50782 3.17054 3.6704 3.17829ZM3.64823 3.628C3.6433 3.60732 3.63838 3.58665 3.63345 3.56597C3.68518 3.52979 3.71228 3.52462 3.77386 3.52979C3.79357 3.60215 3.69011 3.64868 3.64823 3.628ZM3.85023 3.86319C3.72706 3.83993 3.81328 3.62541 3.91674 3.69003C3.96847 3.79858 3.86994 3.80633 3.85023 3.86319ZM4.1483 4.43179C4.21235 4.50415 4.05716 4.73934 3.91674 4.80137C3.94384 4.64372 4.06701 4.55067 4.1483 4.43179ZM4.12859 5.07792C4.12367 5.15287 4.1754 5.264 4.06701 5.27176C4.04484 5.19939 4.08179 5.16062 4.06947 5.09342C4.08918 5.08826 4.10889 5.08309 4.12859 5.07792ZM3.90196 5.38031C3.8995 5.45009 3.8453 5.48627 3.78618 5.51987C3.76155 5.43717 3.83052 5.28985 3.90196 5.38031ZM3.85762 5.83518C3.86255 5.9153 3.8724 6.00059 3.8724 6.07554C3.99064 5.72663 4.10889 5.29502 4.60649 5.22524C4.69025 5.80934 4.03252 5.9489 3.76647 6.25905C3.76894 6.0988 3.76401 5.93598 3.85762 5.83518ZM4.47101 5.92306C4.42667 6.10914 4.40203 6.30815 4.37247 6.50199C4.26901 6.60796 4.11135 6.68032 3.99311 6.77595C3.92413 6.34692 4.23452 6.15825 4.47101 5.92306ZM3.67286 6.03678C3.70489 6.15825 3.75662 6.44772 3.58911 6.50199C3.50043 6.33917 3.63838 6.17634 3.67286 6.03678ZM1.97804 7.48669C1.90168 7.26959 1.95834 7.10677 2.14555 7.11194C2.11107 7.24892 2.09382 7.39882 1.97804 7.48669ZM2.18497 8.01135C2.14555 7.8873 2.21946 7.69087 2.34755 7.61592C2.33524 7.77358 2.29089 7.91314 2.18497 8.01135ZM2.42392 7.94932C2.38943 7.96742 2.3845 8.00877 2.33277 8.01652C2.27119 7.94416 2.34755 7.89246 2.35002 7.81234C2.42146 7.77616 2.39682 7.90539 2.42392 7.94932ZM2.13077 7.8692C1.99282 7.55389 2.22685 7.32387 2.28597 7.07576C2.30814 7.06542 2.32292 7.07059 2.33031 7.08609C2.2638 7.34713 2.27858 7.66244 2.13077 7.8692ZM2.63823 7.96225C2.63331 7.78133 2.65302 7.61592 2.79097 7.52546C2.85994 7.74773 2.77372 7.8692 2.63823 7.96225ZM2.6875 7.17397C2.77619 7.29027 2.67765 7.44017 2.59636 7.50737C2.51999 7.3859 2.65548 7.27993 2.6875 7.17397ZM2.91167 7.95966C2.85009 7.98551 2.81806 7.96483 2.81314 7.89505C2.8624 7.82268 2.93877 7.8873 2.91167 7.95966ZM2.52245 7.28252C2.51753 7.09643 2.55202 6.93102 2.74416 6.87158C2.68997 7.01114 2.6407 7.24116 2.52245 7.28252ZM2.85994 6.90776C2.85255 6.79146 2.98557 6.70875 3.08904 6.71651C3.11121 6.83798 3.01514 6.8845 2.97818 6.9672C2.93384 6.95428 2.88458 6.9517 2.85994 6.90776ZM3.10875 7.44276C3.01267 7.33421 3.17033 7.23083 3.18511 7.1352C3.24177 7.2179 3.12599 7.34713 3.10875 7.44276ZM3.03238 7.19723C3.00775 6.90776 3.1925 6.65965 3.37233 6.55627C3.23931 6.76044 3.21713 7.03182 3.03238 7.19723ZM3.52999 7.71413C3.45608 7.75032 3.43145 7.63401 3.51028 7.63143C3.51767 7.65727 3.52506 7.6857 3.52999 7.71413ZM3.74677 8.18969C3.6236 8.10181 3.67286 7.87179 3.66547 7.74515C3.79603 7.85628 3.76401 8.05529 3.74677 8.18969ZM3.57679 7.45827C3.4216 7.25409 3.66794 7.16104 3.63591 6.97754C3.70735 7.12486 3.70243 7.37556 3.57679 7.45827ZM4.14584 8.82031C4.01774 8.79705 3.99064 8.60063 3.94877 8.42746C4.02759 8.52826 4.18525 8.69625 4.14584 8.82031ZM3.85516 7.83044C3.80096 7.67795 3.81328 7.56682 3.83299 7.45827C3.88472 7.48928 3.99803 7.7865 3.85516 7.83044ZM3.77633 7.03182C3.78618 6.87675 3.80835 6.73201 3.8453 6.59245C3.90442 6.63897 3.93399 7.03182 3.77633 7.03182ZM4.21974 6.94136C4.36262 7.2179 4.13598 7.41174 4.03006 7.58749C3.8256 7.34713 4.01281 6.97754 4.21974 6.94136ZM4.34045 7.46343C4.60403 7.54872 4.35276 8.31374 4.21481 8.38352C4.00789 7.96742 4.19757 7.71155 4.34045 7.46343ZM4.55476 9.31654C4.44637 9.31654 4.39464 9.2235 4.35769 9.10202C4.44884 9.11753 4.55476 9.239 4.55476 9.31654ZM4.53259 9.03482C4.42667 9.00898 4.36015 8.81514 4.39464 8.71434C4.47347 8.7557 4.57201 8.97021 4.53259 9.03482ZM4.44637 8.56703C4.50796 8.36285 4.57447 8.15867 4.71981 8.01135C4.8011 8.26464 4.68779 8.53601 4.58925 8.73244C4.50057 8.74536 4.50796 8.59546 4.44637 8.56703ZM4.81342 9.24934C4.94644 9.28294 5.02281 9.41733 5.06469 9.60859C4.86515 9.6396 4.79618 9.44835 4.81342 9.24934ZM4.96861 9.1899C4.68532 9.07618 4.76415 8.65749 4.90949 8.47398C5.10657 8.61355 5.04005 9.0064 4.96861 9.1899ZM5.26176 8.89268C5.49825 8.85908 5.47608 9.26485 5.582 9.45352C5.49086 9.48453 5.37754 9.32429 5.25437 9.31395C5.20017 9.14079 5.23466 9.01932 5.26176 8.89268ZM5.3603 9.60084C5.54012 9.5569 5.74212 9.72231 5.83573 9.9239C5.62881 9.89806 5.45637 9.81535 5.3603 9.60084ZM5.80125 9.2235C5.95644 9.00381 6.087 9.37857 6.1412 9.60084C5.986 9.64477 5.784 9.48712 5.80125 9.2235ZM6.12149 9.05292C5.96629 9.0555 5.81849 8.97538 5.57215 9.05809C5.55491 8.9883 5.51549 8.96246 5.5081 8.87458C5.43666 8.7557 5.29625 8.75311 5.19032 8.6885C5.07454 8.57478 5.077 8.26205 4.94644 8.17418C4.99325 8.14575 4.94891 8.05787 4.97354 8.01394C5.33813 7.96225 5.69778 7.91831 5.89486 8.15867C6.02049 8.64973 6.11656 8.76087 6.12149 9.05292ZM5.64851 7.08868C5.49825 7.08351 5.52288 6.83539 5.54505 6.73718C5.59678 6.70875 5.59432 6.7682 5.63373 6.75786C5.6559 6.87933 5.64605 6.98013 5.64851 7.08868ZM5.47854 6.44513C5.41942 6.37018 5.40956 6.23837 5.4613 6.18409C5.54751 6.18926 5.56476 6.43221 5.47854 6.44513ZM5.72734 6.98013C5.85544 6.98788 5.84805 7.30061 5.86776 7.40916C5.72488 7.37298 5.78893 7.12745 5.72734 6.98013ZM7.61924 14.4597C7.54287 14.4933 7.48621 14.5424 7.39014 14.5631C7.41477 14.5037 7.56012 14.3279 7.61924 14.4597ZM6.61663 15.3333C6.61417 15.4393 6.52302 15.4884 6.43188 15.5349C6.42695 15.4341 6.53288 15.323 6.61663 15.3333ZM6.09932 15.752C6.09932 15.9019 5.98354 15.9769 5.87268 16.0544C5.95398 15.9562 5.96629 15.8166 6.09932 15.752ZM5.90964 15.7572C5.83327 15.92 5.74459 16.2146 5.49332 16.15C5.51303 15.9407 5.7101 15.8476 5.90964 15.7572ZM5.61649 16.5842C5.64112 16.4653 5.683 16.2741 5.84805 16.3025C5.83081 16.4369 5.77908 16.548 5.61649 16.5842ZM5.85298 16.7005C5.86529 16.7677 5.78646 16.7781 5.72734 16.7987C5.7372 16.747 5.78154 16.7134 5.85298 16.7005ZM5.53027 16.4938C5.49086 16.5713 5.50071 16.6773 5.38986 16.7057C5.38493 16.6023 5.41942 16.5248 5.53027 16.4938ZM5.25191 17.0313C5.20264 17.0701 5.27654 17.1916 5.18539 17.2045C5.14105 17.1606 5.18786 17.0572 5.25191 17.0313ZM5.27654 17.8687C5.18786 17.7137 5.23466 17.4991 5.41449 17.4578C5.39478 17.6103 5.45144 17.8119 5.27654 17.8687ZM5.14598 16.747C5.14598 16.5739 5.28147 16.4886 5.40217 16.393C5.42927 16.4369 5.32581 16.7781 5.14598 16.747ZM5.59678 16.8763C5.54505 16.9693 5.49332 17.0598 5.35044 17.0934C5.3603 16.9822 5.46869 16.853 5.59678 16.8763ZM5.49825 17.6335C5.44405 17.2484 5.80617 17.1296 5.8579 16.8117C5.96383 16.7677 6.02049 16.8039 6.09193 16.8194C5.99585 17.1554 5.77169 17.4113 5.49825 17.6335ZM5.97615 16.4059C5.89486 16.2896 6.13873 16.2482 6.23973 16.2715C6.15598 16.3128 6.05251 16.3232 5.97615 16.4059ZM6.09685 16.0182C6.11163 15.9174 6.17076 15.7701 6.28654 15.8373C6.3161 15.9588 6.20771 16.0415 6.09685 16.0182ZM6.06237 15.584C6.11902 15.4005 6.27176 15.279 6.50332 15.2067C6.50824 15.3592 6.29639 15.3695 6.35058 15.5556C6.22988 15.6073 6.15598 15.5788 6.06237 15.584ZM6.40724 15.8967C6.6388 15.8761 6.86544 15.6977 7.0157 15.7882C6.97383 15.9639 6.491 16.0234 6.40724 15.8967ZM7.097 15.6771C6.95166 15.6435 6.81863 15.5918 6.66836 15.5633C6.71024 15.3592 7.00831 15.5608 7.18322 15.4987C7.1709 15.5685 7.097 15.5995 7.097 15.6771ZM7.0157 15.2325C7.00831 15.1757 7.01817 15.1265 7.04526 15.0904C7.23248 15.1472 7.41724 15.2144 7.62663 15.2325C7.5207 15.6073 7.18075 15.1937 7.0157 15.2325ZM8.37304 18.0135C8.36811 18.0988 8.35333 18.1789 8.24741 18.2021C8.22031 18.0988 8.28682 17.985 8.37304 18.0135ZM8.48636 18.8715C8.51099 19.0059 8.43462 19.0757 8.30899 19.1171C8.30653 18.993 8.36072 18.9103 8.48636 18.8715ZM8.1735 18.9749C8.16611 18.8586 8.18582 18.7578 8.30406 18.719C8.33855 18.794 8.30406 18.825 8.32377 18.8922C8.25972 18.9103 8.24494 18.962 8.1735 18.9749ZM8.08728 17.5974C8.1735 17.5793 8.11438 17.7343 8.05526 17.7369C8.02816 17.6671 8.11685 17.6697 8.08728 17.5974ZM8.29175 18.3003C8.31392 18.29 8.3287 18.2952 8.33609 18.3107C8.37304 18.4994 8.24741 18.5872 8.14887 18.6906C8.12424 18.5846 8.29421 18.4502 8.29175 18.3003ZM7.94687 18.365C7.91731 18.197 7.9986 18.0988 8.05033 17.985C8.14887 18.0626 8.02816 18.2848 7.94687 18.365ZM8.00107 18.595C8.00599 18.6699 7.92963 18.6932 7.90992 18.7501C7.82616 18.7061 7.93948 18.4399 8.00107 18.595ZM7.69068 18.6286C7.70299 18.5485 7.76458 18.4011 7.83109 18.4167C7.84094 18.5174 7.80153 18.6622 7.69068 18.6286ZM8.10946 18.8793C8.11685 18.9491 8.0725 18.9878 8.06265 19.0473C8.02077 19.024 8.04541 18.8922 8.10946 18.8793ZM7.8976 17.8687C7.93209 18.0393 7.87051 18.3029 7.70299 18.4063C7.7227 18.197 7.84587 18.0548 7.8976 17.8687ZM7.63156 18.091C7.72516 18.1789 7.56751 18.4037 7.51824 18.5174C7.43941 18.3727 7.56012 18.1996 7.63156 18.091ZM7.58721 18.5459C7.57243 18.6441 7.52809 18.7216 7.45173 18.7811C7.4739 18.6854 7.50099 18.5976 7.58721 18.5459ZM7.39999 18.2823C7.41231 18.4089 7.31378 18.4658 7.27436 18.5588C7.20292 18.4632 7.26943 18.3055 7.39999 18.2823ZM7.09453 18.427C7.14134 18.5278 7.01078 18.657 6.93195 18.7345C6.90239 18.5769 6.96151 18.4787 7.09453 18.427ZM6.59939 18.6622C6.6191 18.7216 6.57722 18.7449 6.56244 18.7837C6.51563 18.7914 6.53041 18.6958 6.5378 18.6777C6.55997 18.6725 6.57968 18.6673 6.59939 18.6622ZM6.30378 18.3831C6.32349 18.3779 6.34319 18.3727 6.3629 18.3675C6.36783 18.3882 6.37276 18.4089 6.37768 18.4296C6.35058 18.4373 6.32349 18.4425 6.29885 18.4502C6.30378 18.4322 6.31117 18.4115 6.30378 18.3831ZM6.46883 18.4528C6.51071 18.6699 6.35798 18.763 6.20278 18.8534C6.18061 18.6493 6.31117 18.5433 6.46883 18.4528ZM6.12888 18.5381C6.14612 18.657 6.10178 18.7345 5.99339 18.7733C5.96137 18.6467 6.02542 18.5795 6.12888 18.5381ZM5.91456 18.3495C5.97122 18.489 5.885 18.763 5.71256 18.7552C5.69532 18.564 5.77908 18.4399 5.91456 18.3495ZM2.77372 17.4604C2.75894 17.2717 2.64316 16.9435 2.87226 16.9693C2.86733 17.1502 2.92892 17.3751 2.77372 17.4604ZM3.03484 17.3053C2.86979 17.2976 2.91167 16.9383 3.04716 16.9021C3.09889 17.0133 3.11367 17.2226 3.03484 17.3053ZM3.26887 17.2226C3.08411 17.264 3.09889 16.8711 3.27133 16.8659C3.29596 17.0029 3.20235 17.0624 3.26887 17.2226ZM3.36987 17.1968C3.32552 17.0391 3.27626 16.7962 3.45855 16.8427C3.46348 16.9435 3.38957 17.114 3.5423 17.1115C3.50782 17.1683 3.42652 17.2045 3.36987 17.1968ZM3.77633 16.7626C3.73199 16.8168 3.58418 16.8065 3.62113 16.9125C3.62606 17.0029 3.7246 16.928 3.72952 17.0184C3.66547 17.0313 3.67533 17.0908 3.59896 17.096C3.61867 16.9745 3.53245 16.99 3.5226 16.8504C3.54477 16.791 3.74184 16.6488 3.77633 16.7626ZM1.11585 17.4139C1.07644 17.4035 1.05673 17.3596 1.04688 17.3001C1.11831 17.2614 1.13802 17.3751 1.11585 17.4139ZM1.85487 18.9775C1.83517 18.9697 1.81792 18.9646 1.79082 18.9723C1.77851 18.887 1.80314 18.825 1.80314 18.7475C1.86965 18.7268 1.85241 18.9258 1.85487 18.9775ZM0.719243 15.8735C0.73895 15.8683 0.758657 15.8631 0.778365 15.858C1.23409 15.9614 1.70707 16.181 2.1899 16.2973C2.69736 16.4188 3.24177 16.3542 3.6433 16.6385C3.15062 16.8944 2.44363 16.8401 1.99036 17.0805C1.52231 16.7522 1.11831 16.318 0.719243 15.8735ZM1.99282 18.6544C1.95341 18.3727 1.83517 18.0419 1.88443 17.817C1.92877 17.9282 2.15048 18.5097 1.99282 18.6544ZM2.10368 18.4037C2.04209 18.1479 1.94602 17.7214 1.94602 17.4475C2.04948 17.6594 2.14063 18.166 2.10368 18.4037ZM2.19482 18.2487C2.13816 17.9644 2.05933 17.5224 2.03963 17.2019C2.16526 17.4294 2.33031 18.0264 2.19482 18.2487ZM2.39436 18.1091C2.27858 17.8403 2.20221 17.4759 2.19729 17.1606C2.3377 17.3854 2.37958 17.8455 2.39436 18.1091ZM2.3377 17.127C2.40175 17.127 2.38697 17.0753 2.45348 17.0753C2.55202 17.4268 2.55941 17.7912 2.58897 18.2151C2.40175 17.9825 2.3648 17.4294 2.3377 17.127ZM2.55202 17.0494C2.57911 17.0417 2.60621 17.0365 2.63331 17.0288C2.72199 17.357 2.65548 17.6594 2.77126 17.9023C2.84516 17.8558 2.78604 17.7214 2.7688 17.6154C2.79836 17.6103 2.82545 17.6051 2.82299 17.5793C2.89936 17.5663 2.92153 17.6439 2.95601 17.7007C2.91906 17.7447 2.85255 17.7653 2.83531 17.8196C2.82792 17.9178 2.92645 17.8972 2.8895 17.9618C2.82299 18.0316 2.7146 17.9618 2.63577 17.9592C2.59389 17.6465 2.57419 17.3492 2.55202 17.0494ZM2.82299 18.2228C2.8427 18.2176 2.8624 18.2125 2.88211 18.2073C2.91167 18.2823 2.95355 18.3391 2.97572 18.427C2.89197 18.4167 2.8427 18.3443 2.82299 18.2228ZM2.91414 18.0677C2.98311 17.9721 3.11367 17.83 3.23931 17.83C3.14077 17.9049 3.02745 18.1143 2.91414 18.0677ZM3.20728 18.7009C3.1654 18.6958 3.14077 18.6596 3.12353 18.6105C3.18511 18.5872 3.19743 18.6415 3.20728 18.7009ZM3.07179 18.1143C3.20728 18.0574 3.22945 17.8558 3.37233 17.861C3.42652 17.985 3.30089 17.9954 3.27133 18.0652C3.40682 18.184 3.45116 17.8868 3.55708 17.9256C3.61128 18.0471 3.43638 18.166 3.36001 18.2642C3.23438 18.2693 3.16294 18.1763 3.07179 18.1143ZM3.52752 18.7113C3.45855 18.7035 3.43884 18.6105 3.41913 18.5174C3.4955 18.5097 3.50535 18.6182 3.52752 18.7113ZM3.73691 17.9695C3.77879 18.1168 3.63838 18.2823 3.46594 18.3495C3.52752 18.2125 3.57926 17.9902 3.73691 17.9695ZM3.70735 18.4864C3.73445 18.3314 3.89211 18.259 3.93891 18.1168C3.79603 18.1194 3.8256 18.2357 3.71967 18.2616C3.75416 18.1763 3.8256 18.1143 3.85516 18.0264C3.92167 18.0471 3.99064 18.0677 4.05962 18.0858C4.13106 18.2202 3.7985 18.3314 3.89703 18.4813C4.05223 18.4011 4.07194 18.1427 4.26408 18.1453C4.22713 18.3288 4.02759 18.4089 3.98572 18.5924C3.87733 18.5821 3.78372 18.5536 3.70735 18.4864ZM4.20496 19.0912C4.28379 19.0938 4.29611 19.2075 4.33306 19.2799C4.26901 19.254 4.22467 19.1972 4.20496 19.0912ZM4.33059 18.993C4.40203 18.9982 4.4242 19.086 4.45376 19.161C4.37986 19.161 4.3503 19.086 4.33059 18.993ZM5.582 19.7399C5.63866 19.7296 5.67561 19.7554 5.68547 19.8252C5.6362 19.82 5.59432 19.8045 5.582 19.7399ZM4.01528 18.6312C4.1754 18.4942 4.23698 18.2978 4.39218 18.1582C4.40942 18.1866 4.43406 18.2021 4.46608 18.2047C4.40203 18.3598 4.23452 18.4502 4.15323 18.595C4.33306 18.6208 4.41435 18.29 4.63852 18.228C4.59171 18.4063 4.39464 18.489 4.33552 18.6596C4.4981 18.6208 4.61881 18.4011 4.75676 18.2874C4.92181 18.2693 5.07454 18.2693 5.2051 18.3055C5.13366 18.5097 4.86269 18.5846 4.81342 18.8043C4.99818 18.6544 5.21249 18.5252 5.29132 18.3055C5.37015 18.2874 5.42435 18.3107 5.48593 18.3236C5.43666 18.5226 5.17554 18.5872 5.1041 18.7759C5.31596 18.7216 5.44652 18.4606 5.61156 18.3159C5.78154 18.5407 5.38986 18.6906 5.31842 18.8767C5.45144 18.9077 5.50317 18.7345 5.58939 18.6751C5.68054 18.6803 5.56722 18.887 5.68793 18.9155C5.79139 18.9103 5.78154 18.8328 5.85298 18.8069C5.87761 18.918 5.79878 18.962 5.85544 19.0938C5.97861 19.0499 5.90717 18.8767 6.05251 18.8457C6.14612 18.9129 5.99339 19.1067 6.11902 19.1377C6.21756 19.1171 6.12395 18.9749 6.17568 18.9232C6.27915 18.9129 6.32595 18.8638 6.40971 18.8405C6.42695 18.9491 6.35798 19.0473 6.41217 19.1274C6.57968 19.1274 6.44173 18.931 6.54766 18.8922C6.62649 18.9439 6.54766 19.086 6.62649 19.1377C6.78661 19.0628 6.63388 18.7862 6.80385 18.7165C6.82356 18.8974 6.70532 19.0602 6.83095 19.1972C6.93441 19.0188 6.86544 18.732 7.10439 18.6389C7.09207 18.7449 7.05758 18.8353 6.99846 18.9103C7.18075 18.993 6.93687 19.1817 7.05019 19.3186C7.20785 19.086 7.10685 18.688 7.37536 18.5278C7.40246 18.6777 7.33841 18.7656 7.25712 18.8457C7.38275 18.9284 7.28421 19.0111 7.33348 19.1791C7.51085 19.1558 7.3458 18.9129 7.4468 18.8405C7.6217 18.9103 7.45173 19.1765 7.44926 19.3057C7.46158 19.3316 7.49114 19.329 7.50346 19.36C7.60446 19.2515 7.54534 19.0395 7.58721 18.8948C7.67097 18.8896 7.6956 18.8457 7.76212 18.8276C7.81385 19.0266 7.68082 19.1093 7.7227 19.3031C7.8976 19.2308 7.71531 18.9284 7.91977 18.8767C8.01092 18.9956 7.94687 19.1532 7.8976 19.2359C7.91485 19.2928 7.98382 19.2644 8.01585 19.2954C8.10207 19.2204 8.11438 19.0964 8.23263 19.0421C8.26711 19.1843 8.1538 19.2308 8.10699 19.3186C8.23263 19.4737 8.29667 19.1972 8.41245 19.1739C8.43955 19.2566 8.4026 19.298 8.44202 19.3884C8.51592 19.4453 8.62431 19.4479 8.74501 19.422C8.77704 19.4634 8.85094 19.435 8.88543 19.4763C9.0357 19.4453 9.20813 19.4996 9.37318 19.4866C9.45694 19.4789 9.58257 19.3729 9.64662 19.4841C9.0554 19.6314 8.16365 19.5047 7.5749 19.4763C6.289 19.422 5.01788 19.0886 4.01528 18.6312ZM9.82398 20.6393C9.89296 20.6213 9.90035 20.704 9.91759 20.7712C9.86586 20.7608 9.8363 20.7143 9.82398 20.6393ZM10.0038 21.1485C9.92991 21.1692 9.91759 21.0839 9.8905 21.0219C9.94469 21.0348 9.98657 21.0684 10.0038 21.1485ZM9.55794 20.2181C9.62199 20.2439 9.66879 20.3008 9.68603 20.4067C9.6146 20.3938 9.57764 20.3189 9.55794 20.2181ZM9.72298 20.7531C9.64662 20.7867 9.66633 20.6574 9.61459 20.6471C9.62691 20.6083 9.71313 20.691 9.72298 20.7531ZM9.46186 20.9081C9.50374 20.9133 9.52838 20.9521 9.54562 20.9986C9.4865 21.0219 9.47172 20.9676 9.46186 20.9081ZM9.2106 19.9958C9.28943 19.9958 9.31899 20.0837 9.33869 20.1845C9.27218 20.1638 9.23523 20.0888 9.2106 19.9958ZM9.18104 21.1562C9.12191 21.133 9.07757 21.0813 9.05787 20.9883C9.12191 21.0063 9.15394 21.0787 9.18104 21.1562ZM8.64894 20.4946C8.54794 20.4429 8.48636 20.3266 8.43216 20.1948C8.53316 20.2284 8.65387 20.3706 8.64894 20.4946ZM8.21784 20.8254C8.11192 20.8409 8.03802 20.6781 8.04048 20.6057C8.1267 20.629 8.16611 20.7401 8.21784 20.8254ZM7.48129 20.1922C7.38029 20.2103 7.33841 20.1276 7.299 20.0397C7.40739 20.0035 7.43448 20.1147 7.48129 20.1922ZM6.59446 20.1043C6.54273 20.1147 6.51071 20.094 6.49593 20.0397C6.55997 20.0113 6.57722 20.0578 6.59446 20.1043ZM6.05005 20.2206C6.17322 20.2026 6.24959 20.2698 6.32841 20.3266C6.20524 20.492 6.13873 20.6936 5.88254 20.7737C5.70517 20.5049 5.99339 20.3964 6.05005 20.2206ZM5.69532 20.9753C5.76183 20.9417 5.78647 20.9779 5.82588 20.9857C5.82834 21.071 5.70025 21.0529 5.69532 20.9753ZM5.78154 20.7996C5.71503 20.8384 5.73473 20.7246 5.71256 20.6833C5.76429 20.6729 5.76922 20.7427 5.78154 20.7996ZM6.05498 21.7042C5.93427 21.6473 5.96383 21.4044 5.96876 21.239C6.12888 21.3139 6.09685 21.5698 6.05498 21.7042ZM6.04512 21.1097C6.13381 21.0865 6.18061 21.2493 6.15844 21.3242C6.06483 21.3449 6.07222 21.195 6.04512 21.1097ZM6.40478 22.2159C6.3629 22.159 6.34812 22.0608 6.32841 21.9678C6.39493 21.9807 6.51071 22.159 6.40478 22.2159ZM6.45651 21.8903C6.38261 21.9006 6.37522 21.7972 6.35305 21.7171C6.41463 21.7248 6.47129 21.8437 6.45651 21.8903ZM7.07236 22.9111C6.89746 22.8853 6.72995 22.738 6.71024 22.5364C6.85558 22.6087 7.07729 22.6759 7.07236 22.9111ZM6.64373 22.1539C6.73734 22.2547 6.9147 22.3348 6.9147 22.5054C6.77429 22.4769 6.70285 22.3245 6.64373 22.1539ZM6.92209 22.2624C6.794 22.2392 6.72749 22.1099 6.69546 21.9213C6.77429 21.8024 7.00585 21.3217 7.07236 21.6266C7.10192 21.7662 6.94427 22.0557 6.92209 22.2624ZM7.42463 22.9758C7.36797 22.968 7.34826 22.893 7.29653 22.875C7.20539 22.968 7.39507 22.9913 7.39507 23.1153C7.26697 23.1231 7.20292 22.8853 7.20785 22.7638C7.22017 22.7612 7.23495 22.7561 7.24726 22.7535C7.32856 22.7793 7.4468 22.8672 7.42463 22.9758ZM7.43202 22.7302C7.11424 22.707 7.09453 22.0608 7.35319 22.0195C7.4739 22.2676 7.48621 22.5157 7.43202 22.7302ZM7.86558 22.5105C7.99368 22.6423 8.04541 22.9938 8.07004 23.2109C7.76704 23.2316 7.48375 22.6475 7.86558 22.5105ZM8.16858 23.4539C8.04294 23.4952 8.00107 23.3893 7.94441 23.3117C8.05033 23.304 8.1538 23.304 8.16858 23.4539ZM8.24002 23.1231C8.14394 22.9551 8.13163 22.5958 8.23509 22.5493C8.32623 22.5054 8.51345 22.6889 8.54301 22.7819C8.56519 22.8594 8.50114 23.1722 8.62431 23.3169C8.51099 23.2911 8.32377 23.2704 8.24002 23.1231ZM8.43709 23.428C8.49375 23.3789 8.72284 23.4151 8.69082 23.5185C8.58243 23.5314 8.51099 23.4772 8.43709 23.428ZM8.52084 23.6064C8.62923 23.6064 8.73762 23.6038 8.7795 23.7175C8.65633 23.7459 8.56026 23.7253 8.52084 23.6064ZM8.11192 22.4692C8.00107 22.3451 7.89021 22.1099 7.71038 22.1952C7.64141 21.9058 7.46404 21.7998 7.22017 21.8101C7.33348 21.5439 7.04526 21.4147 6.99353 21.2906C6.94426 21.164 7.04773 20.9236 6.82602 20.934C6.74966 20.9443 6.74473 21.0012 6.72502 21.0477C6.75458 21.1407 6.8137 21.0012 6.85312 21.058C6.94427 21.4147 6.58461 21.4819 6.49839 21.7248C6.44173 21.6551 6.40971 21.5465 6.35551 21.4741C6.42202 21.1924 6.8679 21.071 6.68068 20.6833C6.60678 20.8978 6.41463 21.0374 6.22249 21.1769C6.09193 20.7789 6.48361 20.7117 6.48853 20.4016C6.8137 20.5024 7.04034 20.5411 7.35073 20.6833C7.40246 20.7065 8.52084 21.2674 8.62431 21.3217C10.4078 22.2443 10.5359 22.9008 10.7798 22.7923C10.9522 22.7173 10.8266 22.3348 11.068 21.6551C11.4769 20.5075 12.5189 19.0188 12.8096 18.5769C12.9821 18.6596 12.8072 18.887 12.95 19.0059C12.9057 19.1532 12.7924 19.3186 12.9205 19.5228C12.8417 19.8536 12.8096 20.2129 12.8318 20.6083C12.6889 20.7686 12.5362 20.9908 12.6668 21.27C12.4598 21.4173 12.3243 21.6085 12.3219 21.8877C12.147 21.96 12.1273 22.1332 12.0755 22.2831C11.8169 22.4097 11.4646 22.4821 11.5829 22.8078C11.6247 22.6656 11.8292 22.4201 11.9524 22.6708C11.8612 22.7018 11.7504 22.7199 11.7282 22.7948C11.7947 22.8801 11.9179 22.7561 12.014 22.7457C11.9154 22.831 11.7996 22.9396 11.6789 22.9422C11.4991 22.9473 11.3661 22.6449 11.0557 22.8129C10.9842 22.8517 10.9547 22.875 10.9301 22.999C10.834 22.9602 10.7576 22.8853 10.6615 22.8439C10.5113 22.8672 10.4275 22.9318 10.3364 22.9938C10.1541 22.8801 9.76486 22.7095 9.72298 23.0817C9.58011 23.0249 9.45447 22.9396 9.24016 23.0042C9.12438 22.8543 8.94948 22.8026 8.79428 22.7199C8.72284 22.7328 8.73516 22.8 8.66865 22.8181C8.53562 22.6165 8.43216 22.3555 8.11192 22.4692ZM13.2432 18.9749C13.2851 19.1817 13.2136 19.3135 13.0166 19.3652C12.9624 19.1507 13.0683 19.0421 13.2432 18.9749ZM13.152 18.5769C13.2333 18.6725 13.2062 18.8328 13.0905 18.8586C13.0313 18.7785 13.0461 18.6079 13.152 18.5769ZM13.1816 19.8097C13.1126 19.8356 13.088 19.8924 12.9919 19.9028C12.95 19.7037 13.0215 19.5771 13.1496 19.4866C13.2186 19.5668 13.1742 19.7115 13.1816 19.8097ZM13.2703 20.0087C13.2678 20.1199 13.2555 20.2232 13.1644 20.2801C13.152 20.1767 13.2013 20.1121 13.2112 20.0242C13.2309 20.0191 13.2506 20.0139 13.2703 20.0087ZM12.2677 22.1694C12.2554 22.0608 12.3909 21.9704 12.4771 21.9833C12.4352 22.0634 12.4081 22.1539 12.2677 22.1694ZM12.5337 22.4123C12.4303 22.5777 12.1568 22.5415 12.0706 22.4201C12.2529 22.3684 12.4278 22.3348 12.5337 22.4123ZM12.8441 21.8256C12.7727 21.973 12.7136 22.2159 12.5362 22.2366C12.583 22.0634 12.7209 21.9497 12.8441 21.8256ZM12.4943 21.7791C12.4869 21.6008 12.5682 21.4819 12.7259 21.4095C12.7136 21.5749 12.6397 21.7016 12.4943 21.7791ZM12.7136 21.7248C12.7875 21.5517 12.7998 21.3397 13.0067 21.2519C12.9895 21.4586 12.9303 21.6447 12.7136 21.7248ZM12.7973 21.1718C12.6717 20.9236 12.8761 20.6393 13.0658 20.5928C13.051 20.8332 12.9574 21.0244 12.7973 21.1718ZM12.9919 20.4558C12.9082 20.3809 12.9427 20.0966 13.0905 20.0552C13.0831 20.2051 13.0116 20.3137 12.9919 20.4558ZM11.1518 23.5624C11.1123 23.6167 10.9966 23.6115 10.9916 23.5133C11.0335 23.4591 11.1468 23.4642 11.1518 23.5624ZM9.92006 23.6296C9.92252 23.7098 9.84123 23.6684 9.79935 23.6607C9.79689 23.6115 9.90281 23.6167 9.92006 23.6296ZM8.81892 22.8879C9.02831 22.893 9.1293 23.2265 9.17365 23.4177C8.92484 23.4849 8.62431 23.1308 8.81892 22.8879ZM9.28204 23.6141C9.17365 23.6245 9.07265 23.6219 9.02831 23.5237C9.08743 23.4901 9.26726 23.4771 9.28204 23.6141ZM9.09235 23.7072C9.25986 23.7227 9.4323 23.7278 9.53084 23.8622C9.36086 23.963 9.16626 23.8674 9.09235 23.7072ZM9.3855 23.3221C9.3313 22.9577 9.78457 23.2885 9.84862 23.4927C9.63184 23.6193 9.40767 23.4746 9.3855 23.3221ZM9.75008 23.8054C9.82398 23.7304 9.94962 23.8131 10.0753 23.7459C10.0679 23.9217 9.82891 23.8442 9.75008 23.8054ZM9.82891 23.2316C9.84862 23.1748 9.87818 23.1205 9.92006 23.0765C10.1319 23.1334 10.2699 23.3143 10.4152 23.4823C10.1147 23.5779 9.94223 23.4539 9.82891 23.2316ZM10.3684 23.7382C10.4669 23.7227 10.5975 23.6581 10.6714 23.6839C10.6344 23.7899 10.43 23.8726 10.3684 23.7382ZM10.5458 23.3169C10.3019 23.0662 10.664 22.9422 10.8266 23.0688C10.7921 23.2213 10.9227 23.2756 10.9498 23.4151C10.7527 23.4875 10.7083 23.3014 10.5458 23.3169ZM10.9448 23.6813C11.068 23.6865 11.201 23.6115 11.2897 23.6167C11.2823 23.7356 10.9892 23.7666 10.9448 23.6813ZM11.1641 23.2471C11.1 23.2006 11.0631 23.1076 10.9966 23.0662C10.9719 22.9189 11.1961 22.862 11.3316 22.8698C11.3907 22.9654 11.4646 23.0326 11.5188 23.1334C11.4375 23.1954 11.2823 23.2109 11.1641 23.2471ZM11.2823 23.3066C11.4449 23.3014 11.6075 23.1334 11.7257 23.2161C11.706 23.3815 11.3587 23.397 11.2823 23.3066ZM11.4942 23.4952C11.6198 23.4048 11.8243 23.2859 11.9696 23.2652C12.0386 23.5159 11.6395 23.5185 11.4942 23.4952ZM12.1519 23.043C12.0238 23.0249 11.775 23.1334 11.7602 22.9887C12.0854 22.8646 12.2529 22.7147 12.5436 22.8129C12.5584 23.0559 12.3071 23.0662 12.1519 23.043ZM12.5337 22.5907C12.5756 22.4175 12.7702 22.3865 12.9402 22.3322C12.9131 22.4821 12.7234 22.6036 12.5337 22.5907ZM12.7308 22.2521C12.8688 22.0014 12.8909 21.6757 13.2974 21.5982C13.3023 21.929 13.019 22.1694 12.7308 22.2521ZM13.3467 21.2545C13.322 21.4354 13.2013 21.5543 12.9845 21.6111C13.0535 21.3527 13.1693 21.027 13.4477 20.9624C13.4575 21.089 13.4526 21.2054 13.3467 21.2545ZM13.0092 21.0735C13.1397 20.7608 13.1767 20.3835 13.5043 20.1948C13.4501 20.5592 13.4132 20.934 13.0092 21.0735ZM13.4206 20.1043C13.3491 19.9544 13.3885 19.634 13.5684 19.6443C13.6349 19.8743 13.492 19.9674 13.4206 20.1043ZM13.4624 17.8119C13.5142 18.0419 13.4304 18.184 13.2506 18.2642C13.1718 18.1504 13.3269 18.0729 13.3516 17.9721C13.253 17.8532 13.3713 17.6956 13.4624 17.8119ZM13.6472 18.3391C13.561 18.4218 13.5339 18.5407 13.3861 18.5821C13.1742 18.352 13.662 17.9644 13.6472 18.3391ZM13.051 17.9592C13.0338 17.7162 13.1028 17.5276 13.1102 17.3001C13.1742 17.5017 13.1249 17.786 13.051 17.9592ZM13.3245 18.8664C13.3713 18.8508 13.3861 19.1015 13.3713 19.1636C13.2801 19.1377 13.3688 18.9723 13.3245 18.8664ZM13.4378 19.5461C13.4304 19.3083 13.46 19.0964 13.7211 19.0318C13.7827 19.2359 13.5979 19.4246 13.4378 19.5461ZM13.4723 19.0499C13.3688 18.8198 13.492 18.5872 13.6817 18.4864C13.7999 18.657 13.657 18.9568 13.4723 19.0499ZM13.96 16.5765C13.9354 16.3645 14.0266 16.2276 14.0241 16.0285C14.066 16.0828 14.0463 16.2663 14.1325 16.3128C14.0758 16.4007 14.0536 16.5119 13.96 16.5765ZM14.2212 16.1552C14.0906 16.0466 14.2187 15.8166 14.2138 15.6693C14.2187 15.7934 14.3123 16.026 14.2212 16.1552ZM14.6104 15.4574C14.5217 15.385 14.5907 15.1136 14.5586 14.9611C14.3025 15.1291 14.6005 15.6538 14.3566 15.8321C14.3123 15.6409 14.3862 15.4393 14.3419 15.3049C14.2483 15.3566 14.268 15.4832 14.2606 15.5918C14.1965 15.615 14.199 15.522 14.1399 15.5323C14.0684 15.5995 14.0906 15.7262 14.0832 15.8347C14.0487 15.8967 14.0241 15.8166 13.9748 15.8192C13.8689 16.0906 13.9403 16.4757 13.8048 16.7264C13.7162 16.5455 13.8492 16.3516 13.8196 16.1449C13.5979 16.287 13.726 16.7496 13.6226 17.0365C13.5881 17.1347 13.5092 17.2097 13.4477 17.282C13.4427 17.0236 13.4895 16.7962 13.5142 16.5558C13.2383 16.7057 13.492 17.3492 13.2432 17.5767C13.2062 17.3673 13.3097 17.158 13.2333 16.9797C13.1939 16.9667 13.157 17.0469 13.1052 16.9693C12.9377 17.2795 13.0412 17.7602 12.9229 18.1013C12.9919 18.2409 12.8811 18.3391 12.8072 18.3288C12.8022 18.0109 12.9254 17.6801 12.8885 17.3983C12.647 17.755 12.8909 18.4244 12.5337 18.7087C12.5313 18.396 12.5904 18.1272 12.5559 17.7938C12.344 18.1091 12.6397 18.7526 12.2775 18.9723C12.2381 18.5846 12.3564 18.2978 12.3293 17.9178C12.11 18.2719 12.3096 18.9878 12.0706 19.2695C12.0435 18.8819 12.1273 18.4735 12.11 18.1504C11.9524 18.2099 12.0337 18.4011 12.0287 18.5252C12.0115 18.9258 12.0189 19.4918 11.7996 19.7348C11.8021 19.3367 11.9154 18.9155 11.7898 18.4968C11.6912 18.6079 11.7553 18.7862 11.7627 18.9258C11.7799 19.2721 11.7504 19.6133 11.7159 19.9131C11.6198 19.9519 11.674 20.0888 11.5508 20.1095C11.5484 19.6185 11.674 19.1171 11.5927 18.6363C11.4942 18.7139 11.5139 18.9646 11.5139 19.1222C11.5139 19.5177 11.5853 19.9958 11.4498 20.3137C11.3882 20.4584 11.27 20.5696 11.2035 20.7091C10.9916 21.1537 10.8586 21.6111 10.6468 22.0479C10.6418 21.5982 10.1886 20.6264 10.159 20.1095C10.1418 19.8252 10.3462 19.6081 10.2083 19.4091C10.0999 19.4401 10.1492 19.5745 10.1171 19.6521C10.0605 19.5874 9.95208 19.4789 9.95455 19.4065C10.3068 19.3342 10.4719 19.1119 10.7798 19.0421C11.2528 18.7268 11.7405 18.4192 12.0879 18.0238C12.179 17.9928 12.2628 17.9411 12.3293 17.8739C12.7604 17.4397 13.0806 16.884 13.4674 16.3878C13.8517 15.8967 14.1645 15.354 14.4872 14.8448C14.566 14.8138 14.6178 14.8319 14.6769 14.8423C14.6744 15.0697 14.6128 15.2454 14.6104 15.4574ZM14.401 13.6275C14.3443 13.4673 14.4626 13.2579 14.5242 13.0641C14.5882 12.8677 14.6424 12.6557 14.7089 12.4852C14.7286 12.48 14.7483 12.4748 14.768 12.4697C14.7188 12.8315 14.6399 13.3303 14.401 13.6275ZM14.9208 14.6924C14.9035 14.5916 14.8912 14.4933 14.9971 14.4727C15.0094 14.5709 15.0021 14.6562 14.9208 14.6924ZM14.9035 14.3434C14.874 14.284 14.906 14.2607 14.8937 14.2116C14.9134 14.2065 14.9331 14.2013 14.9528 14.1961C14.9774 14.2711 14.9922 14.3409 14.9035 14.3434ZM14.7089 13.1287C14.7902 12.9297 14.8173 12.6997 14.8789 12.4878C14.9109 12.4748 14.9183 12.4981 14.9429 12.4929C14.8814 12.7049 14.8148 13.0072 14.7089 13.1287ZM14.8025 13.2605C14.7557 13.1158 14.9158 12.953 14.9257 12.7876C15.007 12.9504 14.8518 13.1184 14.8025 13.2605ZM15.0489 13.5086C15.0045 13.5267 15.0119 13.4544 14.975 13.4621C14.9651 13.3949 15.007 13.3639 15.0267 13.3148C15.0957 13.3484 15.0316 13.4466 15.0489 13.5086ZM15.7066 14.8914C15.5465 14.4055 15.1671 13.9919 15.1154 13.5112C15.1351 13.5061 15.1548 13.5009 15.1745 13.4957C15.3395 13.7748 15.4898 14.0824 15.6499 14.3719C15.6524 14.4468 15.7312 14.3874 15.7485 14.4339C15.7608 14.6071 15.7238 14.744 15.7066 14.8914ZM15.7337 14.3745C15.5637 14.0462 15.2854 13.6146 15.2435 13.2579C15.273 13.245 15.2829 13.2683 15.3075 13.2631C15.4479 13.6043 15.7559 13.9532 15.7337 14.3745ZM15.7312 13.9997C15.645 13.656 15.31 13.3277 15.3913 12.9788C15.411 12.9736 15.4307 12.9685 15.4504 12.9633C15.5711 13.2631 15.8766 13.6818 15.7312 13.9997ZM15.7928 13.4311C15.6721 13.2734 15.4356 12.9271 15.5194 12.7023C15.6179 12.7281 15.6031 12.9478 15.7066 12.9659C15.8421 12.8573 15.5957 12.7565 15.6007 12.5937C15.677 12.5601 15.6943 12.6299 15.7706 12.5963C15.8593 12.9271 15.7386 13.121 15.7928 13.4311ZM15.7238 12.405C15.6696 12.4231 15.6549 12.3689 15.6401 12.3146C15.7017 12.2887 15.714 12.343 15.7238 12.405Z" fill="#E63946"/>
</svg>
