<svg width="24" height="14" viewBox="0 0 24 14" fill="none" xmlns="http://www.w3.org/2000/svg">
<path d="M23.7992 3.80001L23.7839 3.77447L23.3088 2.99808L23.2169 2.84995C22.8849 2.30852 22.4967 1.74666 22.0268 1.1235C22.0881 0.852786 22.0932 0.571854 22.0421 0.29603C22.0063 0.122363 21.8837 0.00488281 21.7356 0.00488281C21.7254 0.00488281 21.7152 0.00488281 21.705 0.00488281C21.6232 0.0150985 21.5109 0.0610691 21.4445 0.234736C21.4087 0.331785 21.3832 0.444158 21.3627 0.55653C21.2146 0.423726 21.0563 0.290922 20.9132 0.204089C20.8775 0.183657 20.8162 0.147903 20.7294 0.142795C20.7243 0.142795 20.7191 0.142795 20.714 0.142795C20.5812 0.142795 20.4689 0.229628 20.4382 0.347109C20.4331 0.372648 20.428 0.398187 20.428 0.418619L18.7067 0.362432C18.6709 0.362432 18.6454 0.387971 18.6403 0.418619C18.6351 0.454373 18.6556 0.485021 18.6913 0.490128L19.1153 0.592285C18.9314 0.617825 18.7373 0.612717 18.5534 0.566746C18.533 0.561638 18.5126 0.566746 18.4972 0.576962C18.4819 0.587178 18.4717 0.607609 18.4717 0.62804C18.4717 0.719982 18.5177 0.806815 18.5892 0.863001C18.3082 0.965158 18.0477 1.01624 17.7872 1.02645C17.7566 1.02645 17.7311 1.05199 17.726 1.07753C17.7208 1.10818 17.7362 1.13883 17.7617 1.14904C17.8434 1.1848 17.9303 1.21544 18.0222 1.23077C17.9609 1.25631 17.8996 1.28184 17.8383 1.29717C17.7106 1.32782 17.5778 1.36357 17.4501 1.42486C17.3071 1.49637 17.1947 1.58832 17.1283 1.7058C17.113 1.73134 17.1181 1.76709 17.1385 1.78752C17.1641 1.80795 17.1947 1.80795 17.2203 1.79263C17.3122 1.72112 17.4246 1.67515 17.537 1.66493C17.2969 1.86925 16.9904 2.00716 16.6839 2.0327C16.6584 2.03781 16.6329 2.05313 16.6278 2.07867C16.6227 2.10421 16.6278 2.13486 16.6533 2.15018C16.6942 2.18083 16.735 2.20126 16.7759 2.21658C16.7197 2.2319 16.638 2.24723 16.5307 2.25744C16.2753 2.27277 16.0914 2.40557 15.9024 2.53838L15.836 2.58435C15.8105 2.60478 15.8003 2.63542 15.8156 2.66607C15.8258 2.69672 15.8616 2.71204 15.8922 2.70183C15.9024 2.70183 15.9127 2.69672 15.9229 2.69672C15.8514 2.72226 15.7799 2.7478 15.7084 2.77334C15.55 2.82441 15.4019 2.8806 15.315 3.01341C15.3048 3.03894 15.2997 3.06448 15.315 3.09002C15.3253 3.11045 15.3508 3.12067 15.3712 3.12578C15.4581 3.12578 15.55 3.13089 15.6368 3.13599C15.6419 3.13599 15.6471 3.13599 15.6522 3.13599C15.5194 3.19218 15.3814 3.22793 15.2486 3.24326C15.172 3.24837 15.0903 3.25347 15.0035 3.25347C14.7276 3.25347 14.4416 3.22283 14.1658 3.18707C13.8082 3.14621 13.4507 3.12578 13.1033 3.10535C12.4444 3.06448 11.8162 3.02873 11.2032 2.86528C10.6312 2.70693 10.0233 2.55881 9.38994 2.55881C9.32354 2.55881 9.25714 2.55881 9.19074 2.56391C8.21003 2.61499 7.25486 3.0747 6.62149 3.80512C6.22818 3.84598 5.89107 4.06562 5.5897 4.26483L5.57949 4.27504C5.55395 4.29037 5.5233 4.3108 5.49776 4.33123C5.2628 4.48447 4.99719 4.66324 4.77245 4.66324C4.7418 4.66324 4.71115 4.65813 4.68561 4.65302C4.609 4.6377 4.53238 4.62749 4.45576 4.62749C4.20037 4.62749 3.92965 4.71432 3.65383 4.88799C3.52102 4.96971 3.39844 5.06676 3.27585 5.15359C3.15326 5.24553 3.03067 5.33748 2.90808 5.41409C2.71398 5.53157 2.52499 5.59287 2.36154 5.59287C2.30536 5.59287 2.25428 5.58776 2.20831 5.57244C2.18788 5.56733 2.17255 5.56733 2.15212 5.56733C2.06018 5.56733 1.97845 5.62352 1.94781 5.71546C1.9427 5.73078 1.93759 5.75121 1.93759 5.76654C1.82011 5.77164 1.70263 5.78697 1.59026 5.8074C1.49321 5.82783 1.41659 5.91466 1.41659 6.01171C1.41659 6.0679 1.43702 6.11898 1.47278 6.15984C1.42681 6.16495 1.38594 6.16495 1.33997 6.16495C1.19185 6.16495 1.03861 6.14452 0.89559 6.10876C0.880267 6.10365 0.859835 6.10365 0.844512 6.10365C0.752571 6.10365 0.665737 6.16495 0.63509 6.262C0.629982 6.27732 0.629982 6.29264 0.624874 6.30797C0.548257 6.29775 0.481855 6.29264 0.42056 6.29264C0.395021 6.29264 0.369482 6.29264 0.343943 6.29264C0.241786 6.29775 0.16006 6.36926 0.144737 6.46631C0.124305 6.56336 0.175384 6.66041 0.267325 6.70638C0.313296 6.72681 0.354158 6.74724 0.395021 6.77278C0.190707 6.93623 0.0425797 7.17119 0.0017169 7.43169C-0.0084988 7.51342 0.0272561 7.60025 0.098766 7.64622C0.11409 7.65644 0.129413 7.66155 0.144737 7.66666C0.108982 7.79435 0.098766 7.92716 0.11409 8.05485C0.124305 8.14679 0.190707 8.2183 0.282649 8.23873C0.297972 8.24384 0.313296 8.24384 0.328619 8.24384C0.400129 8.24384 0.471639 8.20809 0.512502 8.14168C0.727031 7.80457 1.11523 7.64112 1.40638 7.55939C1.55961 7.51853 1.71285 7.5032 1.8814 7.49299C2.12658 7.47256 2.38197 7.45213 2.63226 7.33975L3.03067 7.15587C3.06643 7.22738 3.14304 7.26824 3.21966 7.26824C3.22477 7.26824 3.22988 7.26824 3.24009 7.26824C3.42908 7.25292 3.68448 7.17119 3.95008 7.05882C3.95008 7.08436 3.95519 7.11501 3.96541 7.14055C3.99605 7.21716 4.06756 7.26824 4.14929 7.27335C4.17994 7.27335 4.21058 7.27846 4.24634 7.27846C4.43022 7.27846 4.60389 7.2427 4.76223 7.18652C4.77755 7.19163 4.78777 7.20184 4.80309 7.20695C4.91547 7.2427 5.03295 7.26313 5.14021 7.26313C5.38539 7.26313 5.62035 7.17119 5.8502 6.98731C6.01365 6.85451 6.15667 6.6553 6.22308 6.43056C6.4989 7.01796 6.83091 7.43169 7.23443 7.6973C7.12206 8.0191 6.90753 8.30513 6.6266 8.49923C6.59084 8.52477 6.54998 8.55031 6.50912 8.57585C6.35077 8.67801 6.172 8.79038 6.05962 8.97937C5.82977 9.37268 6.1107 9.77109 6.23329 9.93965C6.78494 10.7109 7.22421 11.5078 7.735 12.4578C7.65838 12.7796 7.68903 13.1576 7.82183 13.4692C7.85759 13.5458 7.9342 13.602 8.01593 13.602H8.02615C8.22024 13.602 8.40413 13.4947 8.52672 13.3108C8.61866 13.1678 8.65952 13.0146 8.69528 12.8767C8.76168 12.6213 8.76678 12.371 8.72081 12.136C8.49607 11.094 7.87802 10.1542 7.63795 9.82217C7.64306 9.7762 7.6686 9.72512 7.70946 9.67915C7.77586 9.60253 7.8678 9.54123 7.96996 9.47994C8.08744 9.40332 8.20492 9.32671 8.31729 9.25009L8.31219 9.27052L8.16406 9.69447C8.11809 9.82217 8.0619 9.98562 8.07722 10.1593C8.11298 10.5832 8.53182 10.8284 8.66973 10.9101C8.80254 10.9868 8.93534 11.1196 9.06304 11.2524C9.12433 11.3188 9.19073 11.3852 9.25714 11.4414C9.53807 11.6967 9.82922 11.9521 10.1153 12.2075C10.3604 12.4221 10.6056 12.6417 10.8508 12.8613C10.815 12.9992 10.8355 13.1882 11.0296 13.4181L11.2696 13.699L11.382 13.8318C11.4229 13.8778 11.5199 13.9902 11.6732 13.9953H11.6834C11.8672 13.9953 12.0103 13.842 12.0409 13.6122C12.0818 13.2802 12.0052 12.8971 11.8213 12.5395C11.7804 12.4527 11.7344 12.3761 11.6936 12.2995C11.8264 12.3199 11.9541 12.3454 12.0869 12.3761C12.281 12.417 12.4802 12.4527 12.6896 12.4782C12.7356 12.4834 12.7816 12.4834 12.8326 12.4834C12.9961 12.4834 13.1646 12.4578 13.2872 12.4425C13.3128 12.4374 13.3332 12.4374 13.3536 12.4323C13.3894 12.4272 13.4302 12.4221 13.466 12.417C13.5784 12.4016 13.6959 12.3863 13.8184 12.3659C14.1096 12.3199 14.3139 12.3046 14.5131 12.2893C14.6153 12.279 14.7276 12.2739 14.8451 12.2586C15.2129 12.2177 15.4989 12.0594 15.6675 11.7989C15.8463 11.5231 15.8973 11.186 15.9178 10.9306L15.928 10.8284C15.9484 10.5424 15.974 10.2717 16.0199 10.0009C16.0301 9.93454 16.1221 9.54634 16.1885 9.29606C16.4847 9.47483 16.7708 9.72001 17.0517 9.96008C17.1896 10.0776 17.3378 10.2001 17.4808 10.3176C17.5727 10.3891 17.6544 10.4555 17.6698 10.5271C17.6953 10.6394 17.5523 10.7875 17.4399 10.8948C17.2458 11.0787 17.0262 11.2524 16.8116 11.4158C16.6431 11.5486 16.4694 11.6865 16.3009 11.8347C16.2038 11.7734 16.0863 11.7427 15.9689 11.7427C15.8922 11.7427 15.8156 11.758 15.7441 11.7836C15.7032 11.7989 15.6726 11.8244 15.6471 11.8602L15.2282 12.4476C15.0545 12.6877 15.1312 12.8562 15.1873 12.9277C15.2333 12.9839 15.3202 13.0554 15.4683 13.0554C15.504 13.0554 15.5449 13.0503 15.596 13.0401C16.0914 12.9431 16.5001 12.8205 16.924 12.6366C17.2816 12.4782 17.5472 12.3199 17.7566 12.1258L17.8128 12.0747C17.9916 11.9164 18.1448 11.7734 18.3338 11.5537C18.487 11.375 18.5892 11.2473 18.6556 11.0072C18.865 10.8386 18.9723 10.5322 18.9161 10.2257C18.865 9.94986 18.7118 9.72001 18.5739 9.5208C18.4768 9.38289 18.3798 9.23987 18.2878 9.10196C18.109 8.84657 17.9252 8.58096 17.7566 8.31535C18.155 8.07018 18.4717 7.64622 18.6505 7.1099V7.10479C18.7577 6.77789 18.8701 6.44077 18.8701 6.08322L19.8457 4.34655C19.9019 4.2495 19.953 4.22397 20.0858 4.22397C20.1573 4.22397 20.2441 4.23418 20.3463 4.2444C20.3871 4.2495 20.428 4.25461 20.4689 4.25972C20.7549 4.29037 21.0358 4.36188 21.327 4.4385L21.3781 4.45382C21.424 4.46403 21.47 4.47425 21.516 4.48957C21.7305 4.54065 21.9501 4.59684 22.0881 4.71432C22.1085 4.72964 22.1238 4.75007 22.1391 4.80626C22.226 5.06165 22.466 5.25064 22.7316 5.27618C22.7521 5.27618 22.7674 5.28129 22.7878 5.28129C22.9666 5.28129 23.1403 5.19956 23.2731 5.06676C23.2935 5.07187 23.3088 5.07187 23.3293 5.07187C23.3854 5.07187 23.4416 5.06165 23.4927 5.03611C23.697 4.93906 23.9269 4.72964 23.9831 4.47936C24.0495 4.20864 23.9064 3.97368 23.7992 3.80001ZM11.9745 11.1655C11.9439 11.1655 11.9132 11.1706 11.8775 11.1757C11.6885 11.2115 11.5659 11.3545 11.4842 11.4465C11.4024 11.5384 11.3667 11.615 11.3258 11.7121C11.3207 11.7223 11.3207 11.7274 11.3156 11.7376C11.1879 11.5793 11.05 11.426 10.8916 11.2626C10.8099 11.1809 10.7027 11.0787 10.5852 10.9714C10.4524 10.854 10.3196 10.7314 10.2378 10.6394C10.2174 10.619 10.197 10.5935 10.1766 10.573C10.0591 10.4504 9.96202 10.3432 9.91605 10.2053C9.84454 9.96519 9.99778 9.63828 10.0846 9.43908C10.2583 9.0662 10.4064 8.66779 10.5545 8.2847C10.6669 7.98334 10.7895 7.67176 10.9172 7.37551C12.0511 8.00377 13.1595 8.45326 14.3088 8.74441C14.3905 9.03556 14.3956 9.35225 14.4007 9.67915C14.4007 9.75066 14.4007 9.81706 14.4058 9.88857V9.92943C14.4161 10.3381 14.4263 10.7927 14.651 11.1757C14.6306 11.1809 14.6102 11.1809 14.5795 11.1809C14.554 11.1809 14.5284 11.1809 14.4978 11.1757H14.4825C14.411 11.1706 14.3446 11.1706 14.273 11.1706C13.9002 11.1706 13.5273 11.2166 13.1646 11.3034C13.0829 11.3239 12.9961 11.3596 12.9144 11.3903C12.8173 11.4311 12.6998 11.4771 12.6385 11.4771C12.5926 11.4771 12.5108 11.4158 12.4495 11.3698C12.424 11.3494 12.3985 11.3341 12.378 11.3137C12.235 11.2115 12.1073 11.1655 11.9745 11.1655Z" fill="#E63946"/>
</svg>
