<svg width="24" height="14" viewBox="0 0 24 14" fill="none" xmlns="http://www.w3.org/2000/svg">
<path d="M0.200819 3.80001L0.216143 3.77447L0.691172 2.99808L0.783113 2.84995C1.11512 2.30852 1.50332 1.74666 1.97324 1.1235C1.91195 0.852786 1.90684 0.571854 1.95792 0.29603C1.99368 0.122363 2.11626 0.00488281 2.26439 0.00488281C2.27461 0.00488281 2.28482 0.00488281 2.29504 0.00488281C2.37676 0.0150985 2.48914 0.0610691 2.55554 0.234736C2.59129 0.331785 2.61683 0.444158 2.63726 0.55653C2.78539 0.423726 2.94373 0.290922 3.08675 0.204089C3.12251 0.183657 3.1838 0.147903 3.27064 0.142795C3.27575 0.142795 3.28085 0.142795 3.28596 0.142795C3.41876 0.142795 3.53114 0.229628 3.56178 0.347109C3.56689 0.372648 3.572 0.398187 3.572 0.418619L5.29334 0.362432C5.3291 0.362432 5.35464 0.387971 5.35975 0.418619C5.36485 0.454373 5.34442 0.485021 5.30867 0.490128L4.88472 0.592285C5.0686 0.617825 5.2627 0.612717 5.44658 0.566746C5.46701 0.561638 5.48744 0.566746 5.50277 0.576962C5.51809 0.587178 5.52831 0.607609 5.52831 0.62804C5.52831 0.719982 5.48233 0.806815 5.41082 0.863001C5.69176 0.965158 5.95226 1.01624 6.21276 1.02645C6.2434 1.02645 6.26894 1.05199 6.27405 1.07753C6.27916 1.10818 6.26383 1.13883 6.23829 1.14904C6.15657 1.1848 6.06974 1.21544 5.9778 1.23077C6.03909 1.25631 6.10038 1.28184 6.16168 1.29717C6.28938 1.32782 6.42218 1.36357 6.54988 1.42486C6.6929 1.49637 6.80527 1.58832 6.87167 1.7058C6.88699 1.73134 6.88189 1.76709 6.86145 1.78752C6.83591 1.80795 6.80527 1.80795 6.77973 1.79263C6.68779 1.72112 6.57541 1.67515 6.46304 1.66493C6.70311 1.86925 7.00958 2.00716 7.31605 2.0327C7.34159 2.03781 7.36713 2.05313 7.37224 2.07867C7.37735 2.10421 7.37224 2.13486 7.3467 2.15018C7.30584 2.18083 7.26497 2.20126 7.22411 2.21658C7.2803 2.2319 7.36202 2.24723 7.46929 2.25744C7.72468 2.27277 7.90856 2.40557 8.09755 2.53838L8.16395 2.58435C8.18949 2.60478 8.19971 2.63542 8.18439 2.66607C8.17417 2.69672 8.13842 2.71204 8.10777 2.70183C8.09755 2.70183 8.08734 2.69672 8.07712 2.69672C8.14863 2.72226 8.22014 2.7478 8.29165 2.77334C8.44999 2.82441 8.59812 2.8806 8.68495 3.01341C8.69517 3.03894 8.70028 3.06448 8.68495 3.09002C8.67474 3.11045 8.6492 3.12067 8.62877 3.12578C8.54193 3.12578 8.44999 3.13089 8.36316 3.13599C8.35805 3.13599 8.35294 3.13599 8.34784 3.13599C8.48064 3.19218 8.61855 3.22793 8.75136 3.24326C8.82797 3.24837 8.9097 3.25347 8.99653 3.25347C9.27236 3.25347 9.5584 3.22283 9.83422 3.18707C10.1918 3.14621 10.5493 3.12578 10.8967 3.10535C11.5556 3.06448 12.1838 3.02873 12.7968 2.86528C13.3688 2.70693 13.9767 2.55881 14.6101 2.55881C14.6765 2.55881 14.7429 2.55881 14.8093 2.56391C15.79 2.61499 16.7451 3.0747 17.3785 3.80512C17.7718 3.84598 18.1089 4.06562 18.4103 4.26483L18.4205 4.27504C18.4461 4.29037 18.4767 4.3108 18.5022 4.33123C18.7372 4.48447 19.0028 4.66324 19.2276 4.66324C19.2582 4.66324 19.2888 4.65813 19.3144 4.65302C19.391 4.6377 19.4676 4.62749 19.5442 4.62749C19.7996 4.62749 20.0703 4.71432 20.3462 4.88799C20.479 4.96971 20.6016 5.06676 20.7242 5.15359C20.8467 5.24553 20.9693 5.33748 21.0919 5.41409C21.286 5.53157 21.475 5.59287 21.6385 5.59287C21.6946 5.59287 21.7457 5.58776 21.7917 5.57244C21.8121 5.56733 21.8274 5.56733 21.8479 5.56733C21.9398 5.56733 22.0215 5.62352 22.0522 5.71546C22.0573 5.73078 22.0624 5.75121 22.0624 5.76654C22.1799 5.77164 22.2974 5.78697 22.4097 5.8074C22.5068 5.82783 22.5834 5.91466 22.5834 6.01171C22.5834 6.0679 22.563 6.11898 22.5272 6.15984C22.5732 6.16495 22.6141 6.16495 22.66 6.16495C22.8082 6.16495 22.9614 6.14452 23.1044 6.10876C23.1197 6.10365 23.1402 6.10365 23.1555 6.10365C23.2474 6.10365 23.3343 6.16495 23.3649 6.262C23.37 6.27732 23.37 6.29264 23.3751 6.30797C23.4517 6.29775 23.5181 6.29264 23.5794 6.29264C23.605 6.29264 23.6305 6.29264 23.6561 6.29264C23.7582 6.29775 23.8399 6.36926 23.8553 6.46631C23.8757 6.56336 23.8246 6.66041 23.7327 6.70638C23.6867 6.72681 23.6458 6.74724 23.605 6.77278C23.8093 6.93623 23.9574 7.17119 23.9983 7.43169C24.0085 7.51342 23.9727 7.60025 23.9012 7.64622C23.8859 7.65644 23.8706 7.66155 23.8553 7.66666C23.891 7.79435 23.9012 7.92716 23.8859 8.05485C23.8757 8.14679 23.8093 8.2183 23.7174 8.23873C23.702 8.24384 23.6867 8.24384 23.6714 8.24384C23.5999 8.24384 23.5284 8.20809 23.4875 8.14168C23.273 7.80457 22.8848 7.64112 22.5936 7.55939C22.4404 7.51853 22.2872 7.5032 22.1186 7.49299C21.8734 7.47256 21.618 7.45213 21.3677 7.33975L20.9693 7.15587C20.9336 7.22738 20.857 7.26824 20.7803 7.26824C20.7752 7.26824 20.7701 7.26824 20.7599 7.26824C20.5709 7.25292 20.3155 7.17119 20.0499 7.05882C20.0499 7.08436 20.0448 7.11501 20.0346 7.14055C20.0039 7.21716 19.9324 7.26824 19.8507 7.27335C19.8201 7.27335 19.7894 7.27846 19.7537 7.27846C19.5698 7.27846 19.3961 7.2427 19.2378 7.18652C19.2224 7.19163 19.2122 7.20184 19.1969 7.20695C19.0845 7.2427 18.9671 7.26313 18.8598 7.26313C18.6146 7.26313 18.3797 7.17119 18.1498 6.98731C17.9863 6.85451 17.8433 6.6553 17.7769 6.43056C17.5011 7.01796 17.1691 7.43169 16.7656 7.6973C16.8779 8.0191 17.0925 8.30513 17.3734 8.49923C17.4092 8.52477 17.45 8.55031 17.4909 8.57585C17.6492 8.67801 17.828 8.79038 17.9404 8.97937C18.1702 9.37268 17.8893 9.77109 17.7667 9.93965C17.2151 10.7109 16.7758 11.5078 16.265 12.4578C16.3416 12.7796 16.311 13.1576 16.1782 13.4692C16.1424 13.5458 16.0658 13.602 15.9841 13.602H15.9739C15.7798 13.602 15.5959 13.4947 15.4733 13.3108C15.3813 13.1678 15.3405 13.0146 15.3047 12.8767C15.2383 12.6213 15.2332 12.371 15.2792 12.136C15.5039 11.094 16.122 10.1542 16.3621 9.82217C16.3569 9.7762 16.3314 9.72512 16.2905 9.67915C16.2241 9.60253 16.1322 9.54123 16.03 9.47994C15.9126 9.40332 15.7951 9.32671 15.6827 9.25009L15.6878 9.27052L15.8359 9.69447C15.8819 9.82217 15.9381 9.98562 15.9228 10.1593C15.887 10.5832 15.4682 10.8284 15.3303 10.9101C15.1975 10.9868 15.0647 11.1196 14.937 11.2524C14.8757 11.3188 14.8093 11.3852 14.7429 11.4414C14.4619 11.6967 14.1708 11.9521 13.8847 12.2075C13.6396 12.4221 13.3944 12.6417 13.1492 12.8613C13.185 12.9992 13.1645 13.1882 12.9704 13.4181L12.7304 13.699L12.618 13.8318C12.5771 13.8778 12.4801 13.9902 12.3268 13.9953H12.3166C12.1328 13.9953 11.9897 13.842 11.9591 13.6122C11.9182 13.2802 11.9948 12.8971 12.1787 12.5395C12.2196 12.4527 12.2656 12.3761 12.3064 12.2995C12.1736 12.3199 12.0459 12.3454 11.9131 12.3761C11.719 12.417 11.5198 12.4527 11.3104 12.4782C11.2644 12.4834 11.2184 12.4834 11.1674 12.4834C11.0039 12.4834 10.8354 12.4578 10.7128 12.4425C10.6872 12.4374 10.6668 12.4374 10.6464 12.4323C10.6106 12.4272 10.5698 12.4221 10.534 12.417C10.4216 12.4016 10.3041 12.3863 10.1816 12.3659C9.89041 12.3199 9.68609 12.3046 9.48689 12.2893C9.38473 12.279 9.27236 12.2739 9.15488 12.2586C8.78711 12.2177 8.50107 12.0594 8.33251 11.7989C8.15374 11.5231 8.10266 11.186 8.08223 10.9306L8.07201 10.8284C8.05158 10.5424 8.02604 10.2717 7.98007 10.0009C7.96986 9.93454 7.87791 9.54634 7.81151 9.29606C7.51526 9.47483 7.22922 9.72001 6.94829 9.96008C6.81037 10.0776 6.66225 10.2001 6.51923 10.3176C6.42728 10.3891 6.34556 10.4555 6.33024 10.5271C6.3047 10.6394 6.44772 10.7875 6.56009 10.8948C6.75419 11.0787 6.97383 11.2524 7.18836 11.4158C7.35691 11.5486 7.53058 11.6865 7.69914 11.8347C7.79619 11.7734 7.91367 11.7427 8.03115 11.7427C8.10777 11.7427 8.18438 11.758 8.25589 11.7836C8.29676 11.7989 8.3274 11.8244 8.35294 11.8602L8.77179 12.4476C8.94545 12.6877 8.86884 12.8562 8.81265 12.9277C8.76668 12.9839 8.67985 13.0554 8.53172 13.0554C8.49596 13.0554 8.4551 13.0503 8.40402 13.0401C7.90856 12.9431 7.49994 12.8205 7.07598 12.6366C6.71843 12.4782 6.45283 12.3199 6.2434 12.1258L6.18722 12.0747C6.00844 11.9164 5.85521 11.7734 5.66622 11.5537C5.51298 11.375 5.41082 11.2473 5.34442 11.0072C5.135 10.8386 5.02774 10.5322 5.08392 10.2257C5.135 9.94986 5.28823 9.72001 5.42615 9.5208C5.5232 9.38289 5.62024 9.23987 5.71219 9.10196C5.89096 8.84657 6.07485 8.58096 6.2434 8.31535C5.84499 8.07018 5.52831 7.64622 5.34953 7.1099V7.10479C5.24227 6.77789 5.12989 6.44077 5.12989 6.08322L4.15429 4.34655C4.09811 4.2495 4.04703 4.22397 3.91422 4.22397C3.84271 4.22397 3.75588 4.23418 3.65372 4.2444C3.61286 4.2495 3.572 4.25461 3.53114 4.25972C3.2451 4.29037 2.96416 4.36188 2.67302 4.4385L2.62194 4.45382C2.57597 4.46403 2.53 4.47425 2.48403 4.48957C2.2695 4.54065 2.04986 4.59684 1.91195 4.71432C1.89152 4.72964 1.87619 4.75007 1.86087 4.80626C1.77404 5.06165 1.53397 5.25064 1.26836 5.27618C1.24793 5.27618 1.2326 5.28129 1.21217 5.28129C1.0334 5.28129 0.859732 5.19956 0.726927 5.06676C0.706495 5.07187 0.691174 5.07187 0.670742 5.07187C0.614555 5.07187 0.558371 5.06165 0.507292 5.03611C0.302979 4.93906 0.0731239 4.72964 0.0169373 4.47936C-0.0494652 4.20864 0.0935535 3.97368 0.200819 3.80001ZM12.0255 11.1655C12.0561 11.1655 12.0868 11.1706 12.1225 11.1757C12.3115 11.2115 12.4341 11.3545 12.5158 11.4465C12.5976 11.5384 12.6333 11.615 12.6742 11.7121C12.6793 11.7223 12.6793 11.7274 12.6844 11.7376C12.8121 11.5793 12.95 11.426 13.1084 11.2626C13.1901 11.1809 13.2973 11.0787 13.4148 10.9714C13.5476 10.854 13.6804 10.7314 13.7622 10.6394C13.7826 10.619 13.803 10.5935 13.8234 10.573C13.9409 10.4504 14.038 10.3432 14.0839 10.2053C14.1555 9.96519 14.0022 9.63828 13.9154 9.43908C13.7417 9.0662 13.5936 8.66779 13.4455 8.2847C13.3331 7.98334 13.2105 7.67176 13.0828 7.37551C11.9489 8.00377 10.8405 8.45326 9.6912 8.74441C9.60948 9.03556 9.60437 9.35225 9.59926 9.67915C9.59926 9.75066 9.59926 9.81706 9.59415 9.88857V9.92943C9.58394 10.3381 9.57372 10.7927 9.34897 11.1757C9.36941 11.1809 9.38984 11.1809 9.42048 11.1809C9.44602 11.1809 9.47156 11.1809 9.50221 11.1757H9.51753C9.58904 11.1706 9.65545 11.1706 9.72696 11.1706C10.0998 11.1706 10.4727 11.2166 10.8354 11.3034C10.9171 11.3239 11.0039 11.3596 11.0856 11.3903C11.1827 11.4311 11.3002 11.4771 11.3615 11.4771C11.4074 11.4771 11.4892 11.4158 11.5505 11.3698C11.576 11.3494 11.6015 11.3341 11.622 11.3137C11.765 11.2115 11.8927 11.1655 12.0255 11.1655Z" fill="#E63946"/>
</svg>
