<svg width="188" height="56" viewBox="0 0 188 56" fill="none" xmlns="http://www.w3.org/2000/svg">
<g clip-path="url(#clip0_72_157)">
<path d="M0 55.9999L21.3078 26.2529L13.5113 15.1635H20.0969L24.7774 21.7469L32.2339 11.4401H6.05491L14.8175 26.2259L0 55.9999Z" fill="#E63946"/>
<path d="M18.1372 39.9865L24.5595 31.0691L28.9136 36.5329L35.1181 36.6408L27.9883 26.4958L46.8742 0L33.4853 26.226L42.5745 40.3103L18.1372 39.9865Z" fill="#E63946"/>
<path d="M45.9789 27.725C46.4579 26.525 47.2648 25.45 48.3995 24.5C49.5593 23.525 51.0218 23.025 52.7868 23H67.0078C67.7138 23 68.3063 23.25 68.7854 23.75C69.2897 24.225 69.5419 24.8125 69.5419 25.5125C69.5419 26.2125 69.2897 26.8125 68.7854 27.3125C68.3063 27.7875 67.7138 28.025 67.0078 28.025H52.6355C52.1564 28.025 51.7404 28.225 51.3874 28.625C51.0344 29 50.757 29.45 50.5552 29.975C50.3788 30.5 50.2905 31 50.2905 31.475V38.0375C50.1392 39.5375 49.3072 40.35 47.7943 40.475C47.0883 40.475 46.4706 40.25 45.941 39.8C45.4367 39.325 45.1846 38.7375 45.1846 38.0375V31.5125H45.2224C45.2224 30.2125 45.4746 28.95 45.9789 27.725Z" fill="#1D1D1D"/>
<path d="M74.347 22.625C75.0278 22.6501 75.6077 22.9001 76.0868 23.3751C76.5658 23.825 76.818 24.3876 76.8432 25.0626V38.0376C76.692 39.5376 75.8598 40.3501 74.347 40.4751C73.641 40.4751 73.0232 40.2501 72.4937 39.8001C71.9894 39.325 71.7372 38.7376 71.7372 38.0376V25.0626C71.7625 24.3626 72.0272 23.7876 72.5315 23.3376C73.0358 22.8626 73.641 22.625 74.347 22.625ZM71.1699 17.7501C71.1699 17.0501 71.4725 16.4501 72.0776 15.9501C72.6828 15.4501 73.4141 15.2001 74.2714 15.2001C75.1286 15.2001 75.8598 15.4501 76.465 15.9501C77.0701 16.4501 77.3727 17.0501 77.3727 17.7501C77.3727 18.4751 77.0701 19.0876 76.465 19.5876C75.8598 20.0876 75.1286 20.3376 74.2714 20.3376C73.4141 20.3376 72.6828 20.0876 72.0776 19.5876C71.4725 19.0876 71.1699 18.4751 71.1699 17.7501Z" fill="#1D1D1D"/>
<path d="M100.974 19.7376C101.126 18.2376 101.958 17.425 103.471 17.3C104.177 17.3 104.782 17.5376 105.286 18.0125C105.815 18.4625 106.081 19.0376 106.081 19.7376V37.5876C106.055 38.2876 105.79 38.8751 105.286 39.35C104.782 39.8 104.177 40.025 103.471 40.025H87.5858C85.3669 39.95 83.6894 39.4376 82.555 38.4876C81.4205 37.5125 80.6011 36.425 80.0968 35.225C79.5925 34 79.3403 32.7625 79.3403 31.5125C79.3403 30.2125 79.5798 28.9625 80.0589 27.7625C80.5632 26.5376 81.3826 25.45 82.517 24.5C83.6773 23.525 85.1394 23.025 86.9048 23H96.4355C97.1415 23 97.7346 23.25 98.2138 23.75C98.7181 24.225 98.9699 24.8125 98.9699 25.5125C98.9699 26.2125 98.7181 26.8125 98.2138 27.3125C97.7346 27.7876 97.1415 28.025 96.4355 28.025H86.7531C86.2746 28.025 85.8583 28.225 85.5049 28.625C85.1523 29 84.8876 29.45 84.7109 29.9751C84.56 30.4751 84.4842 30.9751 84.4842 31.4751C84.4842 32 84.56 32.525 84.7109 33.05C84.8876 33.55 85.1523 34 85.5049 34.4C85.8583 34.7751 86.2746 34.9751 86.7531 35H99.9914C100.647 34.9751 100.974 34.65 100.974 34.025V19.7376Z" fill="#1D1D1D"/>
<path d="M117.277 40.025C115.058 39.95 113.382 39.4375 112.247 38.4875C111.113 37.5125 110.293 36.425 109.789 35.225C109.284 34 109.033 32.7625 109.033 31.5125C109.033 30.2125 109.272 28.9625 109.751 27.7625C110.255 26.5375 111.075 25.45 112.209 24.5C113.37 23.525 114.832 23.025 116.597 23H130.969C131.675 23 132.267 23.2375 132.747 23.7125C133.251 24.1625 133.503 24.7125 133.503 25.3625C133.503 26.0375 133.251 26.6125 132.747 27.0875C132.267 27.5375 131.675 27.7625 130.969 27.7625H116.824C116.269 27.7625 115.777 27.95 115.349 28.325C114.945 28.7 114.643 29.1875 114.441 29.7875C114.264 30.3875 114.176 30.975 114.176 31.55C114.176 32.175 114.264 32.7875 114.441 33.3875C114.643 33.9875 114.945 34.475 115.349 34.85C115.777 35.2 116.269 35.3875 116.824 35.4125H130.969C131.675 35.4125 132.267 35.6375 132.747 36.0875C133.251 36.5375 133.503 37.075 133.503 37.7C133.503 38.35 133.251 38.9 132.747 39.35C132.267 39.8 131.675 40.025 130.969 40.025H117.277ZM133.049 31.4375C133.049 31.9125 132.835 32.325 132.406 32.675C132.028 33 131.549 33.1625 130.969 33.1625H118.601C118.021 33.1625 117.53 33 117.126 32.675C116.723 32.325 116.521 31.9125 116.521 31.4375C116.521 30.9875 116.723 30.5875 117.126 30.2375C117.53 29.9125 118.021 29.75 118.601 29.75H130.969C131.549 29.75 132.041 29.925 132.444 30.275C132.847 30.6 133.049 30.9875 133.049 31.4375Z" fill="#1D1D1D"/>
<path d="M137.098 27.725C137.576 26.525 138.383 25.45 139.519 24.5C140.678 23.525 142.141 23.025 143.906 23H158.127C158.833 23 159.426 23.25 159.904 23.75C160.408 24.225 160.661 24.8125 160.661 25.5125C160.661 26.2125 160.408 26.8125 159.904 27.3125C159.426 27.7875 158.833 28.025 158.127 28.025H143.755C143.275 28.025 142.859 28.225 142.506 28.625C142.153 29 141.876 29.45 141.675 29.975C141.498 30.5 141.409 31 141.409 31.475V38.0375C141.258 39.5375 140.426 40.35 138.913 40.475C138.207 40.475 137.589 40.25 137.06 39.8C136.556 39.325 136.303 38.7375 136.303 38.0375V31.5125H136.341C136.341 30.2125 136.594 28.95 137.098 27.725Z" fill="#1D1D1D"/>
<path d="M186.873 25.175C186.873 25.8 186.621 26.3249 186.117 26.75C185.637 27.15 185.044 27.35 184.338 27.35H168.34C168.012 27.35 167.748 27.4124 167.546 27.5375C167.344 27.6624 167.192 27.8 167.092 27.95C166.991 28.075 166.941 28.1875 166.941 28.2875C166.941 28.4124 166.991 28.55 167.092 28.7C167.192 28.8249 167.344 28.95 167.546 29.075C167.748 29.175 168.012 29.2375 168.34 29.2624H180.707C182.296 29.2875 183.607 29.6 184.641 30.2C185.675 30.775 186.406 31.4624 186.835 32.2624C187.289 33.0375 187.516 33.8249 187.516 34.6249C187.516 35.4 187.289 36.1875 186.835 36.9875C186.381 37.7624 185.637 38.45 184.604 39.05C183.595 39.6249 182.296 39.9124 180.707 39.9124C180.431 39.9375 180.229 39.95 180.102 39.95H165.428C164.722 39.95 164.117 39.75 163.612 39.35C163.133 38.9249 162.893 38.4124 162.893 37.8124C162.893 37.1875 163.146 36.6624 163.65 36.2375C164.13 35.8375 164.722 35.6375 165.428 35.6375H181.01C181.388 35.6624 181.691 35.6124 181.918 35.4875C182.17 35.3624 182.359 35.2249 182.486 35.075C182.612 34.9249 182.675 34.775 182.675 34.6249C182.675 34.55 182.612 34.4249 182.486 34.25C182.359 34.05 182.17 33.9 181.918 33.8C181.691 33.675 181.388 33.6 181.01 33.575H168.604C167.142 33.55 165.932 33.25 164.974 32.675C164.016 32.075 163.335 31.3875 162.931 30.6124C162.528 29.8375 162.326 29.0624 162.326 28.2875C162.326 27.5124 162.528 26.75 162.931 26C163.36 25.2249 164.041 24.5624 164.974 24.0124C165.932 23.4375 167.142 23.1249 168.604 23.075C168.857 23.05 169.046 23.0375 169.172 23.0375H184.338C185.044 23.0375 185.637 23.25 186.117 23.675C186.621 24.075 186.873 24.575 186.873 25.175Z" fill="#1D1D1D"/>
</g>
<defs>
<clipPath id="clip0_72_157">
<rect width="188" height="56" fill="white"/>
</clipPath>
</defs>
</svg>
