<svg width="270" height="80" viewBox="0 0 270 80" fill="none" xmlns="http://www.w3.org/2000/svg">
<g clip-path="url(#clip0_591_2166)">
<path d="M-0.000274658 79.9999L30.6014 37.5042L19.4043 21.6622H28.8623L35.5843 31.0671L46.293 16.343H8.6956L21.2802 37.4656L-0.000274658 79.9999Z" fill="#FCFCFC"/>
<path d="M26.0482 57.1235L35.2716 44.3845L41.5248 52.1898L50.4356 52.344L40.196 37.8511L67.3193 0L48.0907 37.4657L61.1443 57.5862L26.0482 57.1235Z" fill="#FCFCFC"/>
<path d="M66.0332 39.607C66.7212 37.8927 67.88 36.3571 69.5096 34.9999C71.1754 33.607 73.2757 32.8927 75.8106 32.8571H96.2344C97.2484 32.8571 98.0993 33.2142 98.7874 33.9285C99.5116 34.607 99.8737 35.4463 99.8737 36.4463C99.8737 37.4463 99.5116 38.3035 98.7874 39.0177C98.0993 39.6964 97.2484 40.0356 96.2344 40.0356H75.5933C74.9052 40.0356 74.3078 40.3213 73.8008 40.8927C73.2938 41.4285 72.8954 42.0713 72.6057 42.8214C72.3523 43.5713 72.2255 44.2856 72.2255 44.9643V54.3392C72.0082 56.4821 70.8133 57.6428 68.6405 57.8214C67.6266 57.8214 66.7394 57.4999 65.9789 56.8571C65.2546 56.1784 64.8925 55.3392 64.8925 54.3392V45.0177H64.9469C64.9469 43.1606 65.309 41.3571 66.0332 39.607Z" fill="#FCFCFC"/>
<path d="M106.775 32.3216C107.752 32.3573 108.585 32.7145 109.273 33.3931C109.961 34.0358 110.323 34.8395 110.36 35.8037V54.3395C110.142 56.4824 108.947 57.643 106.775 57.8217C105.761 57.8217 104.874 57.5002 104.113 56.8573C103.389 56.1787 103.027 55.3395 103.027 54.3395V35.8037C103.063 34.8037 103.443 33.9824 104.167 33.3395C104.892 32.6609 105.761 32.3216 106.775 32.3216ZM102.212 25.3573C102.212 24.3573 102.646 23.5002 103.516 22.7859C104.385 22.0716 105.435 21.7145 106.666 21.7145C107.897 21.7145 108.947 22.0716 109.817 22.7859C110.686 23.5002 111.12 24.3573 111.12 25.3573C111.12 26.3931 110.686 27.2681 109.817 27.9824C108.947 28.6966 107.897 29.0538 106.666 29.0538C105.435 29.0538 104.385 28.6966 103.516 27.9824C102.646 27.2681 102.212 26.3931 102.212 25.3573Z" fill="#FCFCFC"/>
<path d="M145.016 28.1965C145.234 26.0537 146.429 24.8929 148.601 24.7144C149.615 24.7144 150.484 25.0537 151.209 25.7322C151.969 26.375 152.35 27.1965 152.35 28.1965V53.6965C152.313 54.6965 151.933 55.5358 151.209 56.2144C150.484 56.8572 149.615 57.1786 148.601 57.1786H125.788C122.601 57.0715 120.192 56.3394 118.563 54.9822C116.934 53.5893 115.757 52.0357 115.033 50.3214C114.308 48.5715 113.946 46.8036 113.946 45.0179C113.946 43.1608 114.29 41.375 114.978 39.6608C115.703 37.9108 116.879 36.3572 118.509 35.0001C120.175 33.6072 122.275 32.8929 124.81 32.8572H138.498C139.512 32.8572 140.364 33.2144 141.052 33.9286C141.776 34.6072 142.138 35.4465 142.138 36.4465C142.138 37.4465 141.776 38.3036 141.052 39.0179C140.364 39.6965 139.512 40.0357 138.498 40.0357H124.592C123.905 40.0357 123.307 40.3214 122.8 40.8929C122.293 41.4286 121.913 42.0715 121.659 42.8216C121.443 43.5358 121.334 44.2501 121.334 44.9644C121.334 45.7144 121.443 46.4643 121.659 47.2144C121.913 47.9286 122.293 48.5715 122.8 49.1429C123.307 49.6787 123.905 49.9644 124.592 50.0001H143.605C144.546 49.9644 145.016 49.5001 145.016 48.6072V28.1965Z" fill="#FCFCFC"/>
<path d="M168.43 57.1784C165.243 57.0713 162.835 56.3392 161.206 54.9821C159.577 53.5892 158.399 52.0356 157.675 50.3213C156.951 48.5713 156.589 46.8035 156.589 45.0177C156.589 43.1606 156.932 41.3749 157.621 39.6606C158.345 37.9107 159.522 36.3571 161.152 34.9999C162.818 33.607 164.918 32.8927 167.453 32.8571H188.094C189.108 32.8571 189.958 33.1964 190.646 33.8749C191.371 34.5177 191.733 35.3035 191.733 36.232C191.733 37.1964 191.371 38.0177 190.646 38.6964C189.958 39.3392 189.108 39.6606 188.094 39.6606H167.779C166.981 39.6606 166.276 39.9285 165.66 40.4641C165.081 40.9999 164.646 41.6964 164.357 42.5535C164.103 43.4107 163.977 44.25 163.977 45.0713C163.977 45.9643 164.103 46.8392 164.357 47.6964C164.646 48.5535 165.081 49.25 165.66 49.7856C166.276 50.2856 166.981 50.5535 167.779 50.5892H188.094C189.108 50.5892 189.958 50.9107 190.646 51.5535C191.371 52.1964 191.733 52.9643 191.733 53.8571C191.733 54.7856 191.371 55.5713 190.646 56.2142C189.958 56.8571 189.108 57.1784 188.094 57.1784H168.43ZM191.081 44.9107C191.081 45.5892 190.774 46.1784 190.157 46.6785C189.615 47.1428 188.927 47.3749 188.094 47.3749H170.332C169.498 47.3749 168.793 47.1428 168.213 46.6785C167.634 46.1784 167.344 45.5892 167.344 44.9107C167.344 44.2678 167.634 43.6964 168.213 43.1964C168.793 42.732 169.498 42.4999 170.332 42.4999H188.094C188.927 42.4999 189.632 42.7499 190.212 43.25C190.791 43.7142 191.081 44.2678 191.081 44.9107Z" fill="#FCFCFC"/>
<path d="M196.896 39.607C197.583 37.8927 198.742 36.3571 200.372 34.9999C202.037 33.607 204.138 32.8927 206.673 32.8571H227.096C228.11 32.8571 228.962 33.2142 229.649 33.9285C230.374 34.607 230.736 35.4463 230.736 36.4463C230.736 37.4463 230.374 38.3035 229.649 39.0177C228.962 39.6964 228.11 40.0356 227.096 40.0356H206.456C205.768 40.0356 205.17 40.3213 204.663 40.8927C204.156 41.4285 203.758 42.0713 203.469 42.8214C203.215 43.5713 203.087 44.2856 203.087 44.9643V54.3392C202.871 56.4821 201.676 57.6428 199.503 57.8214C198.489 57.8214 197.602 57.4999 196.841 56.8571C196.117 56.1784 195.754 55.3392 195.754 54.3392V45.0177H195.809C195.809 43.1606 196.172 41.3571 196.896 39.607Z" fill="#FCFCFC"/>
<path d="M268.381 35.9644C268.381 36.8572 268.019 37.6071 267.295 38.2143C266.607 38.7857 265.755 39.0715 264.741 39.0715H241.764C241.294 39.0715 240.914 39.1607 240.624 39.3393C240.334 39.5179 240.117 39.7143 239.972 39.9286C239.827 40.1072 239.755 40.2679 239.755 40.4108C239.755 40.5893 239.827 40.7857 239.972 41C240.117 41.1785 240.334 41.3572 240.624 41.5358C240.914 41.6787 241.294 41.7679 241.764 41.8036H259.527C261.808 41.8393 263.691 42.2857 265.176 43.1429C266.661 43.9644 267.711 44.9464 268.326 46.0893C268.979 47.1965 269.304 48.3214 269.304 49.4643C269.304 50.5715 268.979 51.6965 268.326 52.8393C267.675 53.9464 266.607 54.9286 265.122 55.7857C263.674 56.6071 261.808 57.0179 259.527 57.0179C259.129 57.0536 258.839 57.0715 258.657 57.0715H237.582C236.568 57.0715 235.699 56.7857 234.975 56.2143C234.287 55.6071 233.943 54.875 233.943 54.0179C233.943 53.1251 234.305 52.375 235.03 51.7679C235.718 51.1965 236.568 50.9108 237.582 50.9108H259.961C260.505 50.9464 260.939 50.875 261.265 50.6965C261.627 50.5179 261.899 50.3214 262.081 50.1072C262.261 49.8928 262.352 49.6787 262.352 49.4643C262.352 49.3572 262.261 49.1785 262.081 48.9286C261.899 48.6429 261.627 48.4286 261.265 48.2857C260.939 48.1072 260.505 48 259.961 47.9644H242.145C240.045 47.9286 238.307 47.5 236.93 46.6787C235.554 45.8215 234.576 44.8393 233.997 43.7321C233.418 42.6251 233.128 41.5179 233.128 40.4108C233.128 39.3036 233.418 38.2143 233.997 37.1429C234.612 36.0357 235.59 35.0893 236.93 34.3036C238.307 33.4822 240.045 33.0357 242.145 32.9644C242.507 32.9286 242.778 32.9108 242.96 32.9108H264.741C265.755 32.9108 266.607 33.2143 267.295 33.8215C268.019 34.3929 268.381 35.1072 268.381 35.9644Z" fill="#FCFCFC"/>
</g>
<defs>
<clipPath id="clip0_591_2166">
<rect width="270" height="80" fill="white"/>
</clipPath>
</defs>
</svg>
