<svg width="188" height="56" viewBox="0 0 188 56" fill="none" xmlns="http://www.w3.org/2000/svg">
<g clip-path="url(#clip0_113_214)">
<path d="M0 56.0003L21.3078 26.2532L13.5113 15.1639H20.0969L24.7774 21.7473L32.2339 11.4404H6.05491L14.8175 26.2263L0 56.0003Z" fill="#E63946"/>
<path d="M18.1372 39.9865L24.5595 31.0691L28.9136 36.5329L35.1181 36.6408L27.9883 26.4958L46.8742 0L33.4853 26.226L42.5745 40.3103L18.1372 39.9865Z" fill="#E63946"/>
<path d="M45.9789 27.725C46.4579 26.525 47.2648 25.45 48.3995 24.5C49.5593 23.525 51.0218 23.025 52.7868 23H67.0078C67.7138 23 68.3063 23.25 68.7854 23.75C69.2897 24.225 69.5419 24.8125 69.5419 25.5125C69.5419 26.2125 69.2897 26.8125 68.7854 27.3125C68.3063 27.7875 67.7138 28.025 67.0078 28.025H52.6355C52.1564 28.025 51.7404 28.225 51.3874 28.625C51.0344 29 50.757 29.45 50.5552 29.975C50.3788 30.5 50.2905 31 50.2905 31.475V38.0375C50.1392 39.5375 49.3072 40.35 47.7943 40.475C47.0883 40.475 46.4706 40.25 45.941 39.8C45.4367 39.325 45.1846 38.7375 45.1846 38.0375V31.5125H45.2224C45.2224 30.2125 45.4746 28.95 45.9789 27.725Z" fill="white"/>
<path d="M74.347 22.6252C75.0278 22.6502 75.6077 22.9002 76.0868 23.3752C76.5658 23.8252 76.818 24.3877 76.8432 25.0627V38.0377C76.692 39.5377 75.8598 40.3502 74.347 40.4752C73.641 40.4752 73.0232 40.2502 72.4937 39.8002C71.9894 39.3252 71.7372 38.7377 71.7372 38.0377V25.0627C71.7625 24.3627 72.0272 23.7877 72.5315 23.3377C73.0358 22.8627 73.641 22.6252 74.347 22.6252ZM71.1699 17.7502C71.1699 17.0502 71.4725 16.4502 72.0776 15.9502C72.6828 15.4502 73.4141 15.2002 74.2714 15.2002C75.1286 15.2002 75.8598 15.4502 76.465 15.9502C77.0701 16.4502 77.3727 17.0502 77.3727 17.7502C77.3727 18.4752 77.0701 19.0877 76.465 19.5877C75.8598 20.0877 75.1286 20.3377 74.2714 20.3377C73.4141 20.3377 72.6828 20.0877 72.0776 19.5877C71.4725 19.0877 71.1699 18.4752 71.1699 17.7502Z" fill="white"/>
<path d="M100.974 19.7373C101.126 18.2373 101.958 17.4248 103.471 17.2998C104.177 17.2998 104.782 17.5373 105.286 18.0123C105.815 18.4623 106.081 19.0373 106.081 19.7373V37.5873C106.055 38.2873 105.79 38.8748 105.286 39.3498C104.782 39.7998 104.177 40.0248 103.471 40.0248H87.5858C85.3669 39.9498 83.6894 39.4373 82.555 38.4873C81.4205 37.5123 80.6011 36.4248 80.0968 35.2248C79.5925 33.9998 79.3403 32.7623 79.3403 31.5123C79.3403 30.2123 79.5798 28.9623 80.0589 27.7623C80.5632 26.5373 81.3826 25.4498 82.517 24.4998C83.6773 23.5248 85.1394 23.0248 86.9048 22.9998H96.4355C97.1415 22.9998 97.7346 23.2498 98.2138 23.7498C98.7181 24.2248 98.9699 24.8123 98.9699 25.5123C98.9699 26.2123 98.7181 26.8123 98.2138 27.3123C97.7346 27.7873 97.1415 28.0248 96.4355 28.0248H86.7531C86.2746 28.0248 85.8583 28.2248 85.5049 28.6248C85.1523 28.9998 84.8876 29.4498 84.7109 29.9748C84.56 30.4748 84.4842 30.9748 84.4842 31.4748C84.4842 31.9998 84.56 32.5248 84.7109 33.0498C84.8876 33.5498 85.1523 33.9998 85.5049 34.3998C85.8583 34.7748 86.2746 34.9748 86.7531 34.9998H99.9914C100.647 34.9748 100.974 34.6498 100.974 34.0248V19.7373Z" fill="white"/>
<path d="M117.277 40.025C115.058 39.95 113.382 39.4375 112.247 38.4875C111.113 37.5125 110.293 36.425 109.789 35.225C109.284 34 109.033 32.7625 109.033 31.5125C109.033 30.2125 109.272 28.9625 109.751 27.7625C110.255 26.5375 111.075 25.45 112.209 24.5C113.37 23.525 114.832 23.025 116.597 23H130.969C131.675 23 132.267 23.2375 132.747 23.7125C133.251 24.1625 133.503 24.7125 133.503 25.3625C133.503 26.0375 133.251 26.6125 132.747 27.0875C132.267 27.5375 131.675 27.7625 130.969 27.7625H116.824C116.269 27.7625 115.777 27.95 115.349 28.325C114.945 28.7 114.643 29.1875 114.441 29.7875C114.264 30.3875 114.176 30.975 114.176 31.55C114.176 32.175 114.264 32.7875 114.441 33.3875C114.643 33.9875 114.945 34.475 115.349 34.85C115.777 35.2 116.269 35.3875 116.824 35.4125H130.969C131.675 35.4125 132.267 35.6375 132.747 36.0875C133.251 36.5375 133.503 37.075 133.503 37.7C133.503 38.35 133.251 38.9 132.747 39.35C132.267 39.8 131.675 40.025 130.969 40.025H117.277ZM133.049 31.4375C133.049 31.9125 132.835 32.325 132.406 32.675C132.028 33 131.549 33.1625 130.969 33.1625H118.601C118.021 33.1625 117.53 33 117.126 32.675C116.723 32.325 116.521 31.9125 116.521 31.4375C116.521 30.9875 116.723 30.5875 117.126 30.2375C117.53 29.9125 118.021 29.75 118.601 29.75H130.969C131.549 29.75 132.041 29.925 132.444 30.275C132.847 30.6 133.049 30.9875 133.049 31.4375Z" fill="white"/>
<path d="M137.098 27.725C137.576 26.525 138.383 25.45 139.519 24.5C140.678 23.525 142.141 23.025 143.906 23H158.127C158.833 23 159.426 23.25 159.904 23.75C160.408 24.225 160.661 24.8125 160.661 25.5125C160.661 26.2125 160.408 26.8125 159.904 27.3125C159.426 27.7875 158.833 28.025 158.127 28.025H143.755C143.275 28.025 142.859 28.225 142.506 28.625C142.153 29 141.876 29.45 141.675 29.975C141.498 30.5 141.409 31 141.409 31.475V38.0375C141.258 39.5375 140.426 40.35 138.913 40.475C138.207 40.475 137.589 40.25 137.06 39.8C136.556 39.325 136.303 38.7375 136.303 38.0375V31.5125H136.341C136.341 30.2125 136.594 28.95 137.098 27.725Z" fill="white"/>
<path d="M186.873 25.1746C186.873 25.7996 186.621 26.3245 186.117 26.7496C185.637 27.1496 185.044 27.3496 184.338 27.3496H168.34C168.012 27.3496 167.748 27.4121 167.546 27.5371C167.344 27.6621 167.192 27.7996 167.092 27.9496C166.991 28.0746 166.941 28.1871 166.941 28.2871C166.941 28.4121 166.991 28.5496 167.092 28.6996C167.192 28.8246 167.344 28.9496 167.546 29.0746C167.748 29.1746 168.012 29.2371 168.34 29.2621H180.707C182.296 29.2871 183.607 29.5996 184.641 30.1996C185.675 30.7746 186.406 31.4621 186.835 32.2621C187.289 33.0371 187.516 33.8246 187.516 34.6246C187.516 35.3996 187.289 36.1871 186.835 36.9871C186.381 37.7621 185.637 38.4496 184.604 39.0496C183.595 39.6246 182.296 39.9121 180.707 39.9121C180.431 39.9371 180.229 39.9496 180.102 39.9496H165.428C164.722 39.9496 164.117 39.7496 163.612 39.3496C163.133 38.9246 162.893 38.4121 162.893 37.8121C162.893 37.1871 163.146 36.6621 163.65 36.2371C164.13 35.8371 164.722 35.6371 165.428 35.6371H181.01C181.388 35.6621 181.691 35.6121 181.918 35.4871C182.17 35.3621 182.359 35.2246 182.486 35.0746C182.612 34.9246 182.675 34.7746 182.675 34.6246C182.675 34.5496 182.612 34.4246 182.486 34.2496C182.359 34.0496 182.17 33.8996 181.918 33.7996C181.691 33.6746 181.388 33.5996 181.01 33.5746H168.604C167.142 33.5496 165.932 33.2496 164.974 32.6746C164.016 32.0746 163.335 31.3871 162.931 30.6121C162.528 29.8371 162.326 29.0621 162.326 28.2871C162.326 27.5121 162.528 26.7496 162.931 25.9996C163.36 25.2245 164.041 24.5621 164.974 24.0121C165.932 23.4371 167.142 23.1245 168.604 23.0746C168.857 23.0496 169.046 23.0371 169.172 23.0371H184.338C185.044 23.0371 185.637 23.2496 186.117 23.6746C186.621 24.0746 186.873 24.5746 186.873 25.1746Z" fill="white"/>
</g>
<defs>
<clipPath id="clip0_113_214">
<rect width="188" height="56" fill="white"/>
</clipPath>
</defs>
</svg>
